<mxfile host="Electron" agent="Mozilla/5.0 (Macintosh; Intel Mac OS X 10_15_7) AppleWebKit/537.36 (KHTML, like Gecko) draw.io/26.0.16 Chrome/132.0.6834.196 Electron/34.2.0 Safari/537.36" version="26.0.16">
  <diagram name="Page-1" id="mN7NDlXq0wQ3veU8LwHF">
    <mxGraphModel dx="1908" dy="3210" grid="1" gridSize="10" guides="1" tooltips="1" connect="1" arrows="1" fold="1" page="1" pageScale="1" pageWidth="1390" pageHeight="980" math="0" shadow="0">
      <root>
        <mxCell id="0" />
        <mxCell id="1" parent="0" />
        <mxCell id="Q05lDvQQ7-CmcgwzlYSV-1" value="Create an Account" style="rounded=0;whiteSpace=wrap;html=1;" parent="1" vertex="1">
          <mxGeometry x="690" y="-1650" width="120" height="60" as="geometry" />
        </mxCell>
        <mxCell id="Q05lDvQQ7-CmcgwzlYSV-2" value="Store details" style="rounded=0;whiteSpace=wrap;html=1;" parent="1" vertex="1">
          <mxGeometry x="600" y="-1290" width="120" height="60" as="geometry" />
        </mxCell>
        <mxCell id="Q05lDvQQ7-CmcgwzlYSV-3" value="Take security measures for users sake" style="rounded=0;whiteSpace=wrap;html=1;" parent="1" vertex="1">
          <mxGeometry x="760" y="-1470" width="120" height="60" as="geometry" />
        </mxCell>
        <mxCell id="Q05lDvQQ7-CmcgwzlYSV-4" value="Seperate login from users" style="rounded=0;whiteSpace=wrap;html=1;" parent="1" vertex="1">
          <mxGeometry x="920" y="-1470" width="120" height="60" as="geometry" />
        </mxCell>
        <mxCell id="Q05lDvQQ7-CmcgwzlYSV-5" value="Require them to make a secure password(numbers,&lt;div&gt;special characters)&lt;/div&gt;" style="rounded=0;whiteSpace=wrap;html=1;" parent="1" vertex="1">
          <mxGeometry x="420" y="-1470" width="120" height="60" as="geometry" />
        </mxCell>
        <mxCell id="Q05lDvQQ7-CmcgwzlYSV-6" value="Include presence check, range check, length check etc." style="rounded=0;whiteSpace=wrap;html=1;" parent="1" vertex="1">
          <mxGeometry x="420" y="-1370" width="120" height="60" as="geometry" />
        </mxCell>
        <mxCell id="Q05lDvQQ7-CmcgwzlYSV-7" value="Ensure user inputs correct information" style="rounded=0;whiteSpace=wrap;html=1;" parent="1" vertex="1">
          <mxGeometry x="420" y="-1290" width="120" height="60" as="geometry" />
        </mxCell>
        <mxCell id="Q05lDvQQ7-CmcgwzlYSV-8" value="Authenticate if details are correct" style="rounded=0;whiteSpace=wrap;html=1;" parent="1" vertex="1">
          <mxGeometry x="600" y="-1370" width="120" height="60" as="geometry" />
        </mxCell>
        <mxCell id="Q05lDvQQ7-CmcgwzlYSV-9" value="Process" style="rounded=0;whiteSpace=wrap;html=1;" parent="1" vertex="1">
          <mxGeometry x="600" y="-1470" width="120" height="60" as="geometry" />
        </mxCell>
        <mxCell id="Q05lDvQQ7-CmcgwzlYSV-10" value="" style="endArrow=none;html=1;rounded=0;exitX=0.5;exitY=0;exitDx=0;exitDy=0;" parent="1" source="Q05lDvQQ7-CmcgwzlYSV-8" edge="1">
          <mxGeometry width="50" height="50" relative="1" as="geometry">
            <mxPoint x="610" y="-1360" as="sourcePoint" />
            <mxPoint x="660" y="-1410" as="targetPoint" />
          </mxGeometry>
        </mxCell>
        <mxCell id="Q05lDvQQ7-CmcgwzlYSV-11" value="" style="endArrow=none;html=1;rounded=0;exitX=0.5;exitY=0;exitDx=0;exitDy=0;" parent="1" source="Q05lDvQQ7-CmcgwzlYSV-2" edge="1">
          <mxGeometry width="50" height="50" relative="1" as="geometry">
            <mxPoint x="610" y="-1260" as="sourcePoint" />
            <mxPoint x="660" y="-1310" as="targetPoint" />
          </mxGeometry>
        </mxCell>
        <mxCell id="Q05lDvQQ7-CmcgwzlYSV-12" value="" style="endArrow=none;html=1;rounded=0;exitX=0.5;exitY=0;exitDx=0;exitDy=0;" parent="1" source="Q05lDvQQ7-CmcgwzlYSV-6" edge="1">
          <mxGeometry width="50" height="50" relative="1" as="geometry">
            <mxPoint x="430" y="-1360" as="sourcePoint" />
            <mxPoint x="480" y="-1410" as="targetPoint" />
          </mxGeometry>
        </mxCell>
        <mxCell id="Q05lDvQQ7-CmcgwzlYSV-13" value="" style="endArrow=none;html=1;rounded=0;exitX=0.5;exitY=0;exitDx=0;exitDy=0;" parent="1" source="Q05lDvQQ7-CmcgwzlYSV-7" edge="1">
          <mxGeometry width="50" height="50" relative="1" as="geometry">
            <mxPoint x="430" y="-1260" as="sourcePoint" />
            <mxPoint x="480" y="-1310" as="targetPoint" />
          </mxGeometry>
        </mxCell>
        <mxCell id="Q05lDvQQ7-CmcgwzlYSV-14" value="" style="endArrow=none;html=1;rounded=0;" parent="1" edge="1">
          <mxGeometry width="50" height="50" relative="1" as="geometry">
            <mxPoint x="750" y="-1550" as="sourcePoint" />
            <mxPoint x="750" y="-1590" as="targetPoint" />
          </mxGeometry>
        </mxCell>
        <mxCell id="Q05lDvQQ7-CmcgwzlYSV-15" value="" style="endArrow=none;html=1;rounded=0;" parent="1" edge="1">
          <mxGeometry width="50" height="50" relative="1" as="geometry">
            <mxPoint x="480" y="-1550" as="sourcePoint" />
            <mxPoint x="750" y="-1550" as="targetPoint" />
          </mxGeometry>
        </mxCell>
        <mxCell id="Q05lDvQQ7-CmcgwzlYSV-16" value="" style="endArrow=none;html=1;rounded=0;" parent="1" edge="1">
          <mxGeometry width="50" height="50" relative="1" as="geometry">
            <mxPoint x="750" y="-1550" as="sourcePoint" />
            <mxPoint x="980" y="-1550" as="targetPoint" />
          </mxGeometry>
        </mxCell>
        <mxCell id="Q05lDvQQ7-CmcgwzlYSV-17" value="" style="endArrow=none;html=1;rounded=0;exitX=0.5;exitY=0;exitDx=0;exitDy=0;" parent="1" source="Q05lDvQQ7-CmcgwzlYSV-5" edge="1">
          <mxGeometry width="50" height="50" relative="1" as="geometry">
            <mxPoint x="430" y="-1500" as="sourcePoint" />
            <mxPoint x="480" y="-1550" as="targetPoint" />
          </mxGeometry>
        </mxCell>
        <mxCell id="Q05lDvQQ7-CmcgwzlYSV-18" value="" style="endArrow=none;html=1;rounded=0;exitX=0.5;exitY=0;exitDx=0;exitDy=0;" parent="1" source="Q05lDvQQ7-CmcgwzlYSV-9" edge="1">
          <mxGeometry width="50" height="50" relative="1" as="geometry">
            <mxPoint x="610" y="-1500" as="sourcePoint" />
            <mxPoint x="660" y="-1550" as="targetPoint" />
          </mxGeometry>
        </mxCell>
        <mxCell id="Q05lDvQQ7-CmcgwzlYSV-19" value="" style="endArrow=none;html=1;rounded=0;exitX=0.5;exitY=0;exitDx=0;exitDy=0;" parent="1" source="Q05lDvQQ7-CmcgwzlYSV-3" edge="1">
          <mxGeometry width="50" height="50" relative="1" as="geometry">
            <mxPoint x="770" y="-1500" as="sourcePoint" />
            <mxPoint x="820" y="-1550" as="targetPoint" />
          </mxGeometry>
        </mxCell>
        <mxCell id="Q05lDvQQ7-CmcgwzlYSV-20" value="" style="endArrow=none;html=1;rounded=0;exitX=0.5;exitY=0;exitDx=0;exitDy=0;" parent="1" source="Q05lDvQQ7-CmcgwzlYSV-4" edge="1">
          <mxGeometry width="50" height="50" relative="1" as="geometry">
            <mxPoint x="930" y="-1500" as="sourcePoint" />
            <mxPoint x="980" y="-1550" as="targetPoint" />
          </mxGeometry>
        </mxCell>
        <mxCell id="Q05lDvQQ7-CmcgwzlYSV-100" value="GUI Features" style="rounded=0;whiteSpace=wrap;html=1;" parent="1" vertex="1">
          <mxGeometry x="495" y="150" width="120" height="60" as="geometry" />
        </mxCell>
        <mxCell id="Q05lDvQQ7-CmcgwzlYSV-101" value="Navbar" style="rounded=0;whiteSpace=wrap;html=1;" parent="1" vertex="1">
          <mxGeometry x="415" y="280" width="120" height="60" as="geometry" />
        </mxCell>
        <mxCell id="Q05lDvQQ7-CmcgwzlYSV-102" value="" style="endArrow=none;html=1;rounded=0;" parent="1" edge="1">
          <mxGeometry width="50" height="50" relative="1" as="geometry">
            <mxPoint x="555" y="245" as="sourcePoint" />
            <mxPoint x="555" y="245" as="targetPoint" />
          </mxGeometry>
        </mxCell>
        <mxCell id="Q05lDvQQ7-CmcgwzlYSV-103" value="" style="endArrow=none;html=1;rounded=0;exitX=0.5;exitY=0;exitDx=0;exitDy=0;" parent="1" source="Q05lDvQQ7-CmcgwzlYSV-101" edge="1">
          <mxGeometry width="50" height="50" relative="1" as="geometry">
            <mxPoint x="475" y="275" as="sourcePoint" />
            <mxPoint x="475" y="250" as="targetPoint" />
          </mxGeometry>
        </mxCell>
        <mxCell id="Q05lDvQQ7-CmcgwzlYSV-104" value="Content" style="rounded=0;whiteSpace=wrap;html=1;" parent="1" vertex="1">
          <mxGeometry x="520" y="500" width="120" height="60" as="geometry" />
        </mxCell>
        <mxCell id="Q05lDvQQ7-CmcgwzlYSV-105" value="Button" style="rounded=0;whiteSpace=wrap;html=1;" parent="1" vertex="1">
          <mxGeometry x="200" y="520" width="120" height="60" as="geometry" />
        </mxCell>
        <mxCell id="Q05lDvQQ7-CmcgwzlYSV-106" value="&quot;Nutrition&quot;" style="rounded=0;whiteSpace=wrap;html=1;" parent="1" vertex="1">
          <mxGeometry x="40" y="650" width="120" height="60" as="geometry" />
        </mxCell>
        <mxCell id="Q05lDvQQ7-CmcgwzlYSV-107" value="&quot;Excercise Tips&quot;" style="rounded=0;whiteSpace=wrap;html=1;" parent="1" vertex="1">
          <mxGeometry x="190" y="650" width="120" height="60" as="geometry" />
        </mxCell>
        <mxCell id="Q05lDvQQ7-CmcgwzlYSV-108" value="&quot;Mental Wellbeing&quot;" style="rounded=0;whiteSpace=wrap;html=1;" parent="1" vertex="1">
          <mxGeometry x="350" y="650" width="120" height="60" as="geometry" />
        </mxCell>
        <mxCell id="Q05lDvQQ7-CmcgwzlYSV-109" value="" style="endArrow=none;html=1;rounded=0;" parent="1" edge="1">
          <mxGeometry width="50" height="50" relative="1" as="geometry">
            <mxPoint x="260" y="610" as="sourcePoint" />
            <mxPoint x="260" y="580" as="targetPoint" />
          </mxGeometry>
        </mxCell>
        <mxCell id="Q05lDvQQ7-CmcgwzlYSV-110" value="" style="endArrow=none;html=1;rounded=0;" parent="1" edge="1">
          <mxGeometry width="50" height="50" relative="1" as="geometry">
            <mxPoint x="100" y="610" as="sourcePoint" />
            <mxPoint x="260" y="610" as="targetPoint" />
          </mxGeometry>
        </mxCell>
        <mxCell id="Q05lDvQQ7-CmcgwzlYSV-111" value="" style="endArrow=none;html=1;rounded=0;" parent="1" edge="1">
          <mxGeometry width="50" height="50" relative="1" as="geometry">
            <mxPoint x="260" y="610" as="sourcePoint" />
            <mxPoint x="430" y="610" as="targetPoint" />
          </mxGeometry>
        </mxCell>
        <mxCell id="Q05lDvQQ7-CmcgwzlYSV-112" value="" style="endArrow=none;html=1;rounded=0;exitX=0.5;exitY=0;exitDx=0;exitDy=0;" parent="1" source="Q05lDvQQ7-CmcgwzlYSV-106" edge="1">
          <mxGeometry width="50" height="50" relative="1" as="geometry">
            <mxPoint x="50" y="660" as="sourcePoint" />
            <mxPoint x="100" y="610" as="targetPoint" />
          </mxGeometry>
        </mxCell>
        <mxCell id="Q05lDvQQ7-CmcgwzlYSV-113" value="" style="endArrow=none;html=1;rounded=0;exitX=0.5;exitY=0;exitDx=0;exitDy=0;" parent="1" edge="1">
          <mxGeometry width="50" height="50" relative="1" as="geometry">
            <mxPoint x="259.5" y="650" as="sourcePoint" />
            <mxPoint x="259.5" y="610" as="targetPoint" />
          </mxGeometry>
        </mxCell>
        <mxCell id="Q05lDvQQ7-CmcgwzlYSV-114" value="" style="endArrow=none;html=1;rounded=0;exitX=0.5;exitY=0;exitDx=0;exitDy=0;" parent="1" edge="1">
          <mxGeometry width="50" height="50" relative="1" as="geometry">
            <mxPoint x="427" y="650" as="sourcePoint" />
            <mxPoint x="427" y="610" as="targetPoint" />
          </mxGeometry>
        </mxCell>
        <mxCell id="Q05lDvQQ7-CmcgwzlYSV-115" value="Nav Bar" style="rounded=0;whiteSpace=wrap;html=1;" parent="1" vertex="1">
          <mxGeometry x="690" y="500" width="120" height="60" as="geometry" />
        </mxCell>
        <mxCell id="Q05lDvQQ7-CmcgwzlYSV-116" value="Popular Articles for Fitness Advice" style="rounded=0;whiteSpace=wrap;html=1;" parent="1" vertex="1">
          <mxGeometry x="520" y="630" width="120" height="60" as="geometry" />
        </mxCell>
        <mxCell id="Q05lDvQQ7-CmcgwzlYSV-117" value="" style="endArrow=none;html=1;rounded=0;exitX=0.5;exitY=0;exitDx=0;exitDy=0;" parent="1" source="Q05lDvQQ7-CmcgwzlYSV-116" edge="1">
          <mxGeometry width="50" height="50" relative="1" as="geometry">
            <mxPoint x="530" y="610" as="sourcePoint" />
            <mxPoint x="580" y="560" as="targetPoint" />
          </mxGeometry>
        </mxCell>
        <mxCell id="Q05lDvQQ7-CmcgwzlYSV-118" value="" style="endArrow=none;html=1;rounded=0;" parent="1" edge="1">
          <mxGeometry width="50" height="50" relative="1" as="geometry">
            <mxPoint x="260" y="390" as="sourcePoint" />
            <mxPoint x="760" y="390" as="targetPoint" />
          </mxGeometry>
        </mxCell>
        <mxCell id="Q05lDvQQ7-CmcgwzlYSV-119" value="" style="endArrow=none;html=1;rounded=0;" parent="1" edge="1">
          <mxGeometry width="50" height="50" relative="1" as="geometry">
            <mxPoint x="260" y="430" as="sourcePoint" />
            <mxPoint x="260" y="390" as="targetPoint" />
          </mxGeometry>
        </mxCell>
        <mxCell id="Q05lDvQQ7-CmcgwzlYSV-120" value="" style="endArrow=none;html=1;rounded=0;exitX=0.5;exitY=0;exitDx=0;exitDy=0;" parent="1" edge="1">
          <mxGeometry width="50" height="50" relative="1" as="geometry">
            <mxPoint x="579.5" y="500" as="sourcePoint" />
            <mxPoint x="579.5" y="390" as="targetPoint" />
          </mxGeometry>
        </mxCell>
        <mxCell id="Q05lDvQQ7-CmcgwzlYSV-121" value="" style="endArrow=none;html=1;rounded=0;exitX=0.5;exitY=0;exitDx=0;exitDy=0;" parent="1" edge="1">
          <mxGeometry width="50" height="50" relative="1" as="geometry">
            <mxPoint x="760" y="500" as="sourcePoint" />
            <mxPoint x="760" y="390" as="targetPoint" />
          </mxGeometry>
        </mxCell>
        <mxCell id="Q05lDvQQ7-CmcgwzlYSV-122" value="Home Page" style="rounded=0;whiteSpace=wrap;html=1;" parent="1" vertex="1">
          <mxGeometry x="495" y="60" width="120" height="60" as="geometry" />
        </mxCell>
        <mxCell id="Q05lDvQQ7-CmcgwzlYSV-123" value="" style="endArrow=none;html=1;rounded=0;exitX=0.5;exitY=0;exitDx=0;exitDy=0;" parent="1" source="Q05lDvQQ7-CmcgwzlYSV-100" edge="1">
          <mxGeometry width="50" height="50" relative="1" as="geometry">
            <mxPoint x="505" y="170" as="sourcePoint" />
            <mxPoint x="555" y="120" as="targetPoint" />
          </mxGeometry>
        </mxCell>
        <mxCell id="Q05lDvQQ7-CmcgwzlYSV-124" value="" style="endArrow=none;html=1;rounded=0;" parent="1" edge="1">
          <mxGeometry width="50" height="50" relative="1" as="geometry">
            <mxPoint x="475" y="250" as="sourcePoint" />
            <mxPoint x="975" y="250" as="targetPoint" />
          </mxGeometry>
        </mxCell>
        <mxCell id="Q05lDvQQ7-CmcgwzlYSV-125" value="" style="endArrow=none;html=1;rounded=0;exitX=0.5;exitY=0;exitDx=0;exitDy=0;" parent="1" edge="1">
          <mxGeometry width="50" height="50" relative="1" as="geometry">
            <mxPoint x="975" y="290" as="sourcePoint" />
            <mxPoint x="975" y="245" as="targetPoint" />
          </mxGeometry>
        </mxCell>
        <mxCell id="Q05lDvQQ7-CmcgwzlYSV-126" value="" style="endArrow=none;html=1;rounded=0;" parent="1" edge="1">
          <mxGeometry width="50" height="50" relative="1" as="geometry">
            <mxPoint x="555" y="250" as="sourcePoint" />
            <mxPoint x="555" y="210" as="targetPoint" />
          </mxGeometry>
        </mxCell>
        <mxCell id="Q05lDvQQ7-CmcgwzlYSV-127" value="Back-End" style="rounded=0;whiteSpace=wrap;html=1;" parent="1" vertex="1">
          <mxGeometry x="915" y="290" width="120" height="60" as="geometry" />
        </mxCell>
        <mxCell id="Q05lDvQQ7-CmcgwzlYSV-128" value="Database: Stores featured content and product data" style="rounded=0;whiteSpace=wrap;html=1;" parent="1" vertex="1">
          <mxGeometry x="835" y="460" width="120" height="60" as="geometry" />
        </mxCell>
        <mxCell id="Q05lDvQQ7-CmcgwzlYSV-129" value="API:(Fetch and display featured content)" style="rounded=0;whiteSpace=wrap;html=1;" parent="1" vertex="1">
          <mxGeometry x="1015" y="460" width="120" height="60" as="geometry" />
        </mxCell>
        <mxCell id="Q05lDvQQ7-CmcgwzlYSV-130" value="" style="endArrow=none;html=1;rounded=0;" parent="1" edge="1">
          <mxGeometry width="50" height="50" relative="1" as="geometry">
            <mxPoint x="975" y="400" as="sourcePoint" />
            <mxPoint x="975" y="350" as="targetPoint" />
          </mxGeometry>
        </mxCell>
        <mxCell id="Q05lDvQQ7-CmcgwzlYSV-131" value="" style="endArrow=none;html=1;rounded=0;" parent="1" edge="1">
          <mxGeometry width="50" height="50" relative="1" as="geometry">
            <mxPoint x="895" y="400" as="sourcePoint" />
            <mxPoint x="975" y="400" as="targetPoint" />
          </mxGeometry>
        </mxCell>
        <mxCell id="Q05lDvQQ7-CmcgwzlYSV-132" value="" style="endArrow=none;html=1;rounded=0;" parent="1" edge="1">
          <mxGeometry width="50" height="50" relative="1" as="geometry">
            <mxPoint x="975" y="400" as="sourcePoint" />
            <mxPoint x="1075" y="400" as="targetPoint" />
          </mxGeometry>
        </mxCell>
        <mxCell id="Q05lDvQQ7-CmcgwzlYSV-133" value="" style="endArrow=none;html=1;rounded=0;entryX=0.5;entryY=0;entryDx=0;entryDy=0;" parent="1" target="Q05lDvQQ7-CmcgwzlYSV-129" edge="1">
          <mxGeometry width="50" height="50" relative="1" as="geometry">
            <mxPoint x="1075" y="400" as="sourcePoint" />
            <mxPoint x="1125" y="350" as="targetPoint" />
          </mxGeometry>
        </mxCell>
        <mxCell id="Q05lDvQQ7-CmcgwzlYSV-134" value="" style="endArrow=none;html=1;rounded=0;entryX=0.5;entryY=0;entryDx=0;entryDy=0;" parent="1" edge="1">
          <mxGeometry width="50" height="50" relative="1" as="geometry">
            <mxPoint x="894.1700000000001" y="400" as="sourcePoint" />
            <mxPoint x="894.1700000000001" y="460" as="targetPoint" />
          </mxGeometry>
        </mxCell>
        <mxCell id="Q05lDvQQ7-CmcgwzlYSV-135" value="Search Bar" style="rounded=0;whiteSpace=wrap;html=1;" parent="1" vertex="1">
          <mxGeometry x="690" y="590" width="120" height="60" as="geometry" />
        </mxCell>
        <mxCell id="Q05lDvQQ7-CmcgwzlYSV-136" value="Button" style="rounded=0;whiteSpace=wrap;html=1;" parent="1" vertex="1">
          <mxGeometry x="690" y="680" width="120" height="60" as="geometry" />
        </mxCell>
        <mxCell id="Q05lDvQQ7-CmcgwzlYSV-137" value="" style="endArrow=none;html=1;rounded=0;" parent="1" edge="1">
          <mxGeometry width="50" height="50" relative="1" as="geometry">
            <mxPoint x="749.3299999999999" y="680" as="sourcePoint" />
            <mxPoint x="749.3299999999999" y="650" as="targetPoint" />
          </mxGeometry>
        </mxCell>
        <mxCell id="Q05lDvQQ7-CmcgwzlYSV-138" value="" style="endArrow=none;html=1;rounded=0;" parent="1" edge="1">
          <mxGeometry width="50" height="50" relative="1" as="geometry">
            <mxPoint x="749.3299999999999" y="590" as="sourcePoint" />
            <mxPoint x="749.3299999999999" y="560" as="targetPoint" />
          </mxGeometry>
        </mxCell>
        <mxCell id="Q05lDvQQ7-CmcgwzlYSV-139" value="Category Tab" style="rounded=0;whiteSpace=wrap;html=1;" parent="1" vertex="1">
          <mxGeometry x="200" y="430" width="120" height="60" as="geometry" />
        </mxCell>
        <mxCell id="Q05lDvQQ7-CmcgwzlYSV-140" value="" style="endArrow=none;html=1;rounded=0;" parent="1" edge="1">
          <mxGeometry width="50" height="50" relative="1" as="geometry">
            <mxPoint x="259" y="520" as="sourcePoint" />
            <mxPoint x="259.33000000000004" y="490" as="targetPoint" />
          </mxGeometry>
        </mxCell>
        <mxCell id="Q05lDvQQ7-CmcgwzlYSV-182" value="Website" style="rounded=0;whiteSpace=wrap;html=1;" parent="1" vertex="1">
          <mxGeometry x="595" y="-780" width="120" height="60" as="geometry" />
        </mxCell>
        <mxCell id="Q05lDvQQ7-CmcgwzlYSV-183" value="" style="endArrow=none;html=1;rounded=0;" parent="1" edge="1">
          <mxGeometry width="50" height="50" relative="1" as="geometry">
            <mxPoint x="655" y="-560" as="sourcePoint" />
            <mxPoint x="655" y="-720" as="targetPoint" />
          </mxGeometry>
        </mxCell>
        <mxCell id="Q05lDvQQ7-CmcgwzlYSV-184" value="" style="endArrow=none;html=1;rounded=0;" parent="1" edge="1">
          <mxGeometry width="50" height="50" relative="1" as="geometry">
            <mxPoint x="215" y="-560" as="sourcePoint" />
            <mxPoint x="1236.1764705882354" y="-560" as="targetPoint" />
          </mxGeometry>
        </mxCell>
        <mxCell id="Q05lDvQQ7-CmcgwzlYSV-185" value="" style="endArrow=none;html=1;rounded=0;" parent="1" edge="1">
          <mxGeometry width="50" height="50" relative="1" as="geometry">
            <mxPoint x="215" y="-440" as="sourcePoint" />
            <mxPoint x="215" y="-560" as="targetPoint" />
          </mxGeometry>
        </mxCell>
        <mxCell id="Q05lDvQQ7-CmcgwzlYSV-186" value="" style="endArrow=none;html=1;rounded=0;" parent="1" edge="1">
          <mxGeometry width="50" height="50" relative="1" as="geometry">
            <mxPoint x="364.40999999999997" y="-440" as="sourcePoint" />
            <mxPoint x="364.40999999999997" y="-560" as="targetPoint" />
          </mxGeometry>
        </mxCell>
        <mxCell id="Q05lDvQQ7-CmcgwzlYSV-187" value="" style="endArrow=none;html=1;rounded=0;" parent="1" edge="1">
          <mxGeometry width="50" height="50" relative="1" as="geometry">
            <mxPoint x="514.4100000000001" y="-440" as="sourcePoint" />
            <mxPoint x="514.4100000000001" y="-560" as="targetPoint" />
          </mxGeometry>
        </mxCell>
        <mxCell id="Q05lDvQQ7-CmcgwzlYSV-188" value="" style="endArrow=none;html=1;rounded=0;" parent="1" edge="1">
          <mxGeometry width="50" height="50" relative="1" as="geometry">
            <mxPoint x="654.8" y="-440" as="sourcePoint" />
            <mxPoint x="654.8" y="-560" as="targetPoint" />
          </mxGeometry>
        </mxCell>
        <mxCell id="Q05lDvQQ7-CmcgwzlYSV-189" value="" style="endArrow=none;html=1;rounded=0;" parent="1" edge="1">
          <mxGeometry width="50" height="50" relative="1" as="geometry">
            <mxPoint x="794.4099999999999" y="-440" as="sourcePoint" />
            <mxPoint x="794.4099999999999" y="-560" as="targetPoint" />
          </mxGeometry>
        </mxCell>
        <mxCell id="Q05lDvQQ7-CmcgwzlYSV-190" value="" style="endArrow=none;html=1;rounded=0;" parent="1" edge="1">
          <mxGeometry width="50" height="50" relative="1" as="geometry">
            <mxPoint x="944.4099999999999" y="-440" as="sourcePoint" />
            <mxPoint x="944.4099999999999" y="-560" as="targetPoint" />
          </mxGeometry>
        </mxCell>
        <mxCell id="Q05lDvQQ7-CmcgwzlYSV-191" value="" style="endArrow=none;html=1;rounded=0;" parent="1" edge="1">
          <mxGeometry width="50" height="50" relative="1" as="geometry">
            <mxPoint x="1085" y="-440" as="sourcePoint" />
            <mxPoint x="1085" y="-560" as="targetPoint" />
          </mxGeometry>
        </mxCell>
        <mxCell id="Q05lDvQQ7-CmcgwzlYSV-192" value="" style="endArrow=none;html=1;rounded=0;" parent="1" edge="1">
          <mxGeometry width="50" height="50" relative="1" as="geometry">
            <mxPoint x="1235" y="-440" as="sourcePoint" />
            <mxPoint x="1235" y="-560" as="targetPoint" />
          </mxGeometry>
        </mxCell>
        <mxCell id="Q05lDvQQ7-CmcgwzlYSV-193" value="Homepage" style="rounded=0;whiteSpace=wrap;html=1;" parent="1" vertex="1">
          <mxGeometry x="155" y="-440" width="120" height="60" as="geometry" />
        </mxCell>
        <mxCell id="Q05lDvQQ7-CmcgwzlYSV-194" value="About Us&lt;span style=&quot;caret-color: rgba(0, 0, 0, 0); color: rgba(0, 0, 0, 0); font-family: monospace; font-size: 0px; text-align: start; white-space: nowrap;&quot;&gt;%3CmxGraphModel%3E%3Croot%3E%3CmxCell%20id%3D%220%22%2F%3E%3CmxCell%20id%3D%221%22%20parent%3D%220%22%2F%3E%3CmxCell%20id%3D%222%22%20value%3D%22Homepage%22%20style%3D%22rounded%3D0%3BwhiteSpace%3Dwrap%3Bhtml%3D1%3B%22%20vertex%3D%221%22%20parent%3D%221%22%3E%3CmxGeometry%20x%3D%22500%22%20y%3D%2260%22%20width%3D%22120%22%20height%3D%2260%22%20as%3D%22geometry%22%2F%3E%3C%2FmxCell%3E%3C%2Froot%3E%3C%2FmxGraphModel%3E&lt;/span&gt;" style="rounded=0;whiteSpace=wrap;html=1;" parent="1" vertex="1">
          <mxGeometry x="305" y="-440" width="120" height="60" as="geometry" />
        </mxCell>
        <mxCell id="Q05lDvQQ7-CmcgwzlYSV-195" value="Services" style="rounded=0;whiteSpace=wrap;html=1;" parent="1" vertex="1">
          <mxGeometry x="455" y="-440" width="120" height="60" as="geometry" />
        </mxCell>
        <mxCell id="Q05lDvQQ7-CmcgwzlYSV-196" value="Carbon Footprint&amp;nbsp;" style="rounded=0;whiteSpace=wrap;html=1;" parent="1" vertex="1">
          <mxGeometry x="595" y="-440" width="120" height="60" as="geometry" />
        </mxCell>
        <mxCell id="Q05lDvQQ7-CmcgwzlYSV-197" value="Scheduling" style="rounded=0;whiteSpace=wrap;html=1;" parent="1" vertex="1">
          <mxGeometry x="735" y="-440" width="120" height="60" as="geometry" />
        </mxCell>
        <mxCell id="Q05lDvQQ7-CmcgwzlYSV-198" value="Blog" style="rounded=0;whiteSpace=wrap;html=1;" parent="1" vertex="1">
          <mxGeometry x="885" y="-440" width="120" height="60" as="geometry" />
        </mxCell>
        <mxCell id="Q05lDvQQ7-CmcgwzlYSV-199" value="Contact Us" style="rounded=0;whiteSpace=wrap;html=1;" parent="1" vertex="1">
          <mxGeometry x="1025" y="-440" width="120" height="60" as="geometry" />
        </mxCell>
        <mxCell id="Q05lDvQQ7-CmcgwzlYSV-200" value="Accessibility" style="rounded=0;whiteSpace=wrap;html=1;" parent="1" vertex="1">
          <mxGeometry x="1164" y="-440" width="120" height="60" as="geometry" />
        </mxCell>
        <mxCell id="Q05lDvQQ7-CmcgwzlYSV-203" value="Search" style="rounded=0;whiteSpace=wrap;html=1;" parent="1" vertex="1">
          <mxGeometry x="695" y="770" width="120" height="60" as="geometry" />
        </mxCell>
        <mxCell id="Q05lDvQQ7-CmcgwzlYSV-204" value="" style="endArrow=none;html=1;rounded=0;" parent="1" edge="1">
          <mxGeometry width="50" height="50" relative="1" as="geometry">
            <mxPoint x="749.2299999999999" y="770" as="sourcePoint" />
            <mxPoint x="749.2299999999999" y="740" as="targetPoint" />
          </mxGeometry>
        </mxCell>
        <mxCell id="Q05lDvQQ7-CmcgwzlYSV-205" value="" style="endArrow=none;html=1;rounded=0;" parent="1" edge="1">
          <mxGeometry width="50" height="50" relative="1" as="geometry">
            <mxPoint x="470" y="390" as="sourcePoint" />
            <mxPoint x="470" y="340" as="targetPoint" />
          </mxGeometry>
        </mxCell>
        <mxCell id="Q05lDvQQ7-CmcgwzlYSV-207" value="Product Catalog Grid" style="rounded=0;whiteSpace=wrap;html=1;" parent="1" vertex="1">
          <mxGeometry x="245" y="1260" width="120" height="60" as="geometry" />
        </mxCell>
        <mxCell id="Q05lDvQQ7-CmcgwzlYSV-208" value="" style="endArrow=none;html=1;rounded=0;" parent="1" edge="1">
          <mxGeometry width="50" height="50" relative="1" as="geometry">
            <mxPoint x="385" y="1225" as="sourcePoint" />
            <mxPoint x="385" y="1225" as="targetPoint" />
          </mxGeometry>
        </mxCell>
        <mxCell id="Q05lDvQQ7-CmcgwzlYSV-209" value="" style="endArrow=none;html=1;rounded=0;exitX=0.5;exitY=0;exitDx=0;exitDy=0;" parent="1" source="Q05lDvQQ7-CmcgwzlYSV-207" edge="1">
          <mxGeometry width="50" height="50" relative="1" as="geometry">
            <mxPoint x="305" y="1255" as="sourcePoint" />
            <mxPoint x="305" y="1230" as="targetPoint" />
          </mxGeometry>
        </mxCell>
        <mxCell id="Q05lDvQQ7-CmcgwzlYSV-210" value="Filter and Sort Options" style="rounded=0;whiteSpace=wrap;html=1;" parent="1" vertex="1">
          <mxGeometry x="310" y="1450" width="120" height="60" as="geometry" />
        </mxCell>
        <mxCell id="Q05lDvQQ7-CmcgwzlYSV-224" value="" style="endArrow=none;html=1;rounded=0;" parent="1" edge="1">
          <mxGeometry width="50" height="50" relative="1" as="geometry">
            <mxPoint x="220" y="1370" as="sourcePoint" />
            <mxPoint x="370" y="1370" as="targetPoint" />
          </mxGeometry>
        </mxCell>
        <mxCell id="Q05lDvQQ7-CmcgwzlYSV-225" value="" style="endArrow=none;html=1;rounded=0;exitX=0.5;exitY=0;exitDx=0;exitDy=0;" parent="1" source="Q05lDvQQ7-CmcgwzlYSV-245" edge="1">
          <mxGeometry width="50" height="50" relative="1" as="geometry">
            <mxPoint x="220" y="1410" as="sourcePoint" />
            <mxPoint x="220" y="1370" as="targetPoint" />
          </mxGeometry>
        </mxCell>
        <mxCell id="Q05lDvQQ7-CmcgwzlYSV-230" value="" style="endArrow=none;html=1;rounded=0;" parent="1" edge="1">
          <mxGeometry width="50" height="50" relative="1" as="geometry">
            <mxPoint x="305" y="1230" as="sourcePoint" />
            <mxPoint x="1020" y="1230" as="targetPoint" />
          </mxGeometry>
        </mxCell>
        <mxCell id="Q05lDvQQ7-CmcgwzlYSV-231" value="" style="endArrow=none;html=1;rounded=0;exitX=0.5;exitY=0;exitDx=0;exitDy=0;" parent="1" edge="1">
          <mxGeometry width="50" height="50" relative="1" as="geometry">
            <mxPoint x="1020" y="1275" as="sourcePoint" />
            <mxPoint x="1020" y="1230" as="targetPoint" />
          </mxGeometry>
        </mxCell>
        <mxCell id="Q05lDvQQ7-CmcgwzlYSV-233" value="Back-End" style="rounded=0;whiteSpace=wrap;html=1;" parent="1" vertex="1">
          <mxGeometry x="960" y="1275" width="120" height="60" as="geometry" />
        </mxCell>
        <mxCell id="Q05lDvQQ7-CmcgwzlYSV-234" value="Database: Store product details and reviews" style="rounded=0;whiteSpace=wrap;html=1;" parent="1" vertex="1">
          <mxGeometry x="880" y="1445" width="120" height="60" as="geometry" />
        </mxCell>
        <mxCell id="Q05lDvQQ7-CmcgwzlYSV-235" value="API:(Fetch product data for display )" style="rounded=0;whiteSpace=wrap;html=1;" parent="1" vertex="1">
          <mxGeometry x="1060" y="1445" width="120" height="60" as="geometry" />
        </mxCell>
        <mxCell id="Q05lDvQQ7-CmcgwzlYSV-236" value="" style="endArrow=none;html=1;rounded=0;" parent="1" edge="1">
          <mxGeometry width="50" height="50" relative="1" as="geometry">
            <mxPoint x="1020" y="1385" as="sourcePoint" />
            <mxPoint x="1020" y="1335" as="targetPoint" />
          </mxGeometry>
        </mxCell>
        <mxCell id="Q05lDvQQ7-CmcgwzlYSV-237" value="" style="endArrow=none;html=1;rounded=0;" parent="1" edge="1">
          <mxGeometry width="50" height="50" relative="1" as="geometry">
            <mxPoint x="940" y="1385" as="sourcePoint" />
            <mxPoint x="1020" y="1385" as="targetPoint" />
          </mxGeometry>
        </mxCell>
        <mxCell id="Q05lDvQQ7-CmcgwzlYSV-238" value="" style="endArrow=none;html=1;rounded=0;" parent="1" edge="1">
          <mxGeometry width="50" height="50" relative="1" as="geometry">
            <mxPoint x="1020" y="1385" as="sourcePoint" />
            <mxPoint x="1120" y="1385" as="targetPoint" />
          </mxGeometry>
        </mxCell>
        <mxCell id="Q05lDvQQ7-CmcgwzlYSV-239" value="" style="endArrow=none;html=1;rounded=0;entryX=0.5;entryY=0;entryDx=0;entryDy=0;" parent="1" target="Q05lDvQQ7-CmcgwzlYSV-235" edge="1">
          <mxGeometry width="50" height="50" relative="1" as="geometry">
            <mxPoint x="1120" y="1385" as="sourcePoint" />
            <mxPoint x="1170" y="1335" as="targetPoint" />
          </mxGeometry>
        </mxCell>
        <mxCell id="Q05lDvQQ7-CmcgwzlYSV-240" value="" style="endArrow=none;html=1;rounded=0;entryX=0.5;entryY=0;entryDx=0;entryDy=0;" parent="1" edge="1">
          <mxGeometry width="50" height="50" relative="1" as="geometry">
            <mxPoint x="939.1700000000001" y="1385" as="sourcePoint" />
            <mxPoint x="939.1700000000001" y="1445" as="targetPoint" />
          </mxGeometry>
        </mxCell>
        <mxCell id="Q05lDvQQ7-CmcgwzlYSV-245" value="Product Cards" style="rounded=0;whiteSpace=wrap;html=1;" parent="1" vertex="1">
          <mxGeometry x="160" y="1450" width="120" height="60" as="geometry" />
        </mxCell>
        <mxCell id="Q05lDvQQ7-CmcgwzlYSV-249" value="" style="endArrow=none;html=1;rounded=0;" parent="1" edge="1">
          <mxGeometry width="50" height="50" relative="1" as="geometry">
            <mxPoint x="300" y="1370" as="sourcePoint" />
            <mxPoint x="300" y="1320" as="targetPoint" />
          </mxGeometry>
        </mxCell>
        <mxCell id="Q05lDvQQ7-CmcgwzlYSV-252" value="" style="endArrow=none;html=1;rounded=0;" parent="1" edge="1">
          <mxGeometry width="50" height="50" relative="1" as="geometry">
            <mxPoint x="370" y="1450" as="sourcePoint" />
            <mxPoint x="370" y="1370" as="targetPoint" />
          </mxGeometry>
        </mxCell>
        <mxCell id="Q05lDvQQ7-CmcgwzlYSV-253" value="Product description model" style="rounded=0;whiteSpace=wrap;html=1;" parent="1" vertex="1">
          <mxGeometry x="590" y="1275" width="120" height="60" as="geometry" />
        </mxCell>
        <mxCell id="Q05lDvQQ7-CmcgwzlYSV-254" value="Descriotion&amp;nbsp;" style="rounded=0;whiteSpace=wrap;html=1;" parent="1" vertex="1">
          <mxGeometry x="520" y="1440" width="120" height="60" as="geometry" />
        </mxCell>
        <mxCell id="Q05lDvQQ7-CmcgwzlYSV-255" value="Customer Review" style="rounded=0;whiteSpace=wrap;html=1;" parent="1" vertex="1">
          <mxGeometry x="690" y="1440" width="120" height="60" as="geometry" />
        </mxCell>
        <mxCell id="Q05lDvQQ7-CmcgwzlYSV-256" value="" style="endArrow=none;html=1;rounded=0;" parent="1" edge="1">
          <mxGeometry width="50" height="50" relative="1" as="geometry">
            <mxPoint x="648.75" y="1385" as="sourcePoint" />
            <mxPoint x="648.75" y="1335" as="targetPoint" />
          </mxGeometry>
        </mxCell>
        <mxCell id="Q05lDvQQ7-CmcgwzlYSV-257" value="" style="endArrow=none;html=1;rounded=0;" parent="1" edge="1">
          <mxGeometry width="50" height="50" relative="1" as="geometry">
            <mxPoint x="570" y="1385" as="sourcePoint" />
            <mxPoint x="650" y="1385" as="targetPoint" />
          </mxGeometry>
        </mxCell>
        <mxCell id="Q05lDvQQ7-CmcgwzlYSV-258" value="" style="endArrow=none;html=1;rounded=0;" parent="1" edge="1">
          <mxGeometry width="50" height="50" relative="1" as="geometry">
            <mxPoint x="650" y="1385" as="sourcePoint" />
            <mxPoint x="750" y="1385" as="targetPoint" />
          </mxGeometry>
        </mxCell>
        <mxCell id="Q05lDvQQ7-CmcgwzlYSV-259" value="" style="endArrow=none;html=1;rounded=0;entryX=0.5;entryY=0;entryDx=0;entryDy=0;" parent="1" edge="1">
          <mxGeometry width="50" height="50" relative="1" as="geometry">
            <mxPoint x="570.0000000000001" y="1380" as="sourcePoint" />
            <mxPoint x="570.0000000000001" y="1440" as="targetPoint" />
          </mxGeometry>
        </mxCell>
        <mxCell id="Q05lDvQQ7-CmcgwzlYSV-260" value="" style="endArrow=none;html=1;rounded=0;entryX=0.5;entryY=0;entryDx=0;entryDy=0;" parent="1" edge="1">
          <mxGeometry width="50" height="50" relative="1" as="geometry">
            <mxPoint x="750" y="1380" as="sourcePoint" />
            <mxPoint x="750" y="1440" as="targetPoint" />
          </mxGeometry>
        </mxCell>
        <mxCell id="Q05lDvQQ7-CmcgwzlYSV-261" value="" style="endArrow=none;html=1;rounded=0;exitX=0.5;exitY=0;exitDx=0;exitDy=0;" parent="1" source="Q05lDvQQ7-CmcgwzlYSV-253" edge="1">
          <mxGeometry width="50" height="50" relative="1" as="geometry">
            <mxPoint x="600" y="1280" as="sourcePoint" />
            <mxPoint x="650" y="1230" as="targetPoint" />
          </mxGeometry>
        </mxCell>
        <mxCell id="Q05lDvQQ7-CmcgwzlYSV-262" value="GUI Features" style="rounded=0;whiteSpace=wrap;html=1;" parent="1" vertex="1">
          <mxGeometry x="429" y="2170" width="120" height="60" as="geometry" />
        </mxCell>
        <mxCell id="Q05lDvQQ7-CmcgwzlYSV-263" value="Booking Form" style="rounded=0;whiteSpace=wrap;html=1;" parent="1" vertex="1">
          <mxGeometry x="349" y="2300" width="120" height="60" as="geometry" />
        </mxCell>
        <mxCell id="Q05lDvQQ7-CmcgwzlYSV-264" value="" style="endArrow=none;html=1;rounded=0;" parent="1" edge="1">
          <mxGeometry width="50" height="50" relative="1" as="geometry">
            <mxPoint x="489" y="2265" as="sourcePoint" />
            <mxPoint x="489" y="2265" as="targetPoint" />
          </mxGeometry>
        </mxCell>
        <mxCell id="Q05lDvQQ7-CmcgwzlYSV-265" value="" style="endArrow=none;html=1;rounded=0;exitX=0.5;exitY=0;exitDx=0;exitDy=0;" parent="1" source="Q05lDvQQ7-CmcgwzlYSV-263" edge="1">
          <mxGeometry width="50" height="50" relative="1" as="geometry">
            <mxPoint x="409" y="2295" as="sourcePoint" />
            <mxPoint x="409" y="2270" as="targetPoint" />
          </mxGeometry>
        </mxCell>
        <mxCell id="Q05lDvQQ7-CmcgwzlYSV-266" value="Service Selection Dropdown" style="rounded=0;whiteSpace=wrap;html=1;" parent="1" vertex="1">
          <mxGeometry x="414" y="2490" width="120" height="60" as="geometry" />
        </mxCell>
        <mxCell id="Q05lDvQQ7-CmcgwzlYSV-267" value="" style="endArrow=none;html=1;rounded=0;" parent="1" edge="1">
          <mxGeometry width="50" height="50" relative="1" as="geometry">
            <mxPoint x="324" y="2410" as="sourcePoint" />
            <mxPoint x="474" y="2410" as="targetPoint" />
          </mxGeometry>
        </mxCell>
        <mxCell id="Q05lDvQQ7-CmcgwzlYSV-268" value="" style="endArrow=none;html=1;rounded=0;exitX=0.5;exitY=0;exitDx=0;exitDy=0;" parent="1" source="Q05lDvQQ7-CmcgwzlYSV-282" edge="1">
          <mxGeometry width="50" height="50" relative="1" as="geometry">
            <mxPoint x="324" y="2450" as="sourcePoint" />
            <mxPoint x="324" y="2410" as="targetPoint" />
          </mxGeometry>
        </mxCell>
        <mxCell id="Q05lDvQQ7-CmcgwzlYSV-269" value="Scheduling" style="rounded=0;whiteSpace=wrap;html=1;" parent="1" vertex="1">
          <mxGeometry x="355" y="2040" width="120" height="60" as="geometry" />
        </mxCell>
        <mxCell id="Q05lDvQQ7-CmcgwzlYSV-270" value="" style="endArrow=none;html=1;rounded=0;exitX=0.5;exitY=0;exitDx=0;exitDy=0;" parent="1" source="Q05lDvQQ7-CmcgwzlYSV-262" edge="1">
          <mxGeometry width="50" height="50" relative="1" as="geometry">
            <mxPoint x="425" y="2200" as="sourcePoint" />
            <mxPoint x="489" y="2140" as="targetPoint" />
          </mxGeometry>
        </mxCell>
        <mxCell id="Q05lDvQQ7-CmcgwzlYSV-271" value="" style="endArrow=none;html=1;rounded=0;" parent="1" edge="1">
          <mxGeometry width="50" height="50" relative="1" as="geometry">
            <mxPoint x="409" y="2270" as="sourcePoint" />
            <mxPoint x="1124" y="2270" as="targetPoint" />
          </mxGeometry>
        </mxCell>
        <mxCell id="Q05lDvQQ7-CmcgwzlYSV-272" value="" style="endArrow=none;html=1;rounded=0;exitX=0.5;exitY=0;exitDx=0;exitDy=0;" parent="1" edge="1">
          <mxGeometry width="50" height="50" relative="1" as="geometry">
            <mxPoint x="1124" y="2315" as="sourcePoint" />
            <mxPoint x="1124" y="2270" as="targetPoint" />
          </mxGeometry>
        </mxCell>
        <mxCell id="Q05lDvQQ7-CmcgwzlYSV-273" value="" style="endArrow=none;html=1;rounded=0;" parent="1" edge="1">
          <mxGeometry width="50" height="50" relative="1" as="geometry">
            <mxPoint x="489" y="2270" as="sourcePoint" />
            <mxPoint x="489" y="2230" as="targetPoint" />
          </mxGeometry>
        </mxCell>
        <mxCell id="Q05lDvQQ7-CmcgwzlYSV-274" value="Back-End" style="rounded=0;whiteSpace=wrap;html=1;" parent="1" vertex="1">
          <mxGeometry x="1064" y="2315" width="120" height="60" as="geometry" />
        </mxCell>
        <mxCell id="Q05lDvQQ7-CmcgwzlYSV-275" value="Database: Stores consultation and installation schedules" style="rounded=0;whiteSpace=wrap;html=1;" parent="1" vertex="1">
          <mxGeometry x="984" y="2485" width="120" height="60" as="geometry" />
        </mxCell>
        <mxCell id="Q05lDvQQ7-CmcgwzlYSV-276" value="API:(Handles booking and scheduling logic )" style="rounded=0;whiteSpace=wrap;html=1;" parent="1" vertex="1">
          <mxGeometry x="1164" y="2485" width="120" height="60" as="geometry" />
        </mxCell>
        <mxCell id="Q05lDvQQ7-CmcgwzlYSV-277" value="" style="endArrow=none;html=1;rounded=0;" parent="1" edge="1">
          <mxGeometry width="50" height="50" relative="1" as="geometry">
            <mxPoint x="1124" y="2425" as="sourcePoint" />
            <mxPoint x="1124" y="2375" as="targetPoint" />
          </mxGeometry>
        </mxCell>
        <mxCell id="Q05lDvQQ7-CmcgwzlYSV-278" value="" style="endArrow=none;html=1;rounded=0;" parent="1" edge="1">
          <mxGeometry width="50" height="50" relative="1" as="geometry">
            <mxPoint x="1044" y="2425" as="sourcePoint" />
            <mxPoint x="1124" y="2425" as="targetPoint" />
          </mxGeometry>
        </mxCell>
        <mxCell id="Q05lDvQQ7-CmcgwzlYSV-279" value="" style="endArrow=none;html=1;rounded=0;" parent="1" edge="1">
          <mxGeometry width="50" height="50" relative="1" as="geometry">
            <mxPoint x="1124" y="2425" as="sourcePoint" />
            <mxPoint x="1224" y="2425" as="targetPoint" />
          </mxGeometry>
        </mxCell>
        <mxCell id="Q05lDvQQ7-CmcgwzlYSV-280" value="" style="endArrow=none;html=1;rounded=0;entryX=0.5;entryY=0;entryDx=0;entryDy=0;" parent="1" target="Q05lDvQQ7-CmcgwzlYSV-276" edge="1">
          <mxGeometry width="50" height="50" relative="1" as="geometry">
            <mxPoint x="1224" y="2425" as="sourcePoint" />
            <mxPoint x="1274" y="2375" as="targetPoint" />
          </mxGeometry>
        </mxCell>
        <mxCell id="Q05lDvQQ7-CmcgwzlYSV-281" value="" style="endArrow=none;html=1;rounded=0;entryX=0.5;entryY=0;entryDx=0;entryDy=0;" parent="1" edge="1">
          <mxGeometry width="50" height="50" relative="1" as="geometry">
            <mxPoint x="1043.17" y="2425" as="sourcePoint" />
            <mxPoint x="1043.17" y="2485" as="targetPoint" />
          </mxGeometry>
        </mxCell>
        <mxCell id="Q05lDvQQ7-CmcgwzlYSV-282" value="Date and Time picker" style="rounded=0;whiteSpace=wrap;html=1;" parent="1" vertex="1">
          <mxGeometry x="264" y="2490" width="120" height="60" as="geometry" />
        </mxCell>
        <mxCell id="Q05lDvQQ7-CmcgwzlYSV-283" value="" style="endArrow=none;html=1;rounded=0;" parent="1" edge="1">
          <mxGeometry width="50" height="50" relative="1" as="geometry">
            <mxPoint x="404" y="2410" as="sourcePoint" />
            <mxPoint x="404" y="2360" as="targetPoint" />
          </mxGeometry>
        </mxCell>
        <mxCell id="Q05lDvQQ7-CmcgwzlYSV-284" value="" style="endArrow=none;html=1;rounded=0;" parent="1" edge="1">
          <mxGeometry width="50" height="50" relative="1" as="geometry">
            <mxPoint x="474" y="2490" as="sourcePoint" />
            <mxPoint x="474" y="2410" as="targetPoint" />
          </mxGeometry>
        </mxCell>
        <mxCell id="Q05lDvQQ7-CmcgwzlYSV-285" value="Calendar View" style="rounded=0;whiteSpace=wrap;html=1;" parent="1" vertex="1">
          <mxGeometry x="694" y="2315" width="120" height="60" as="geometry" />
        </mxCell>
        <mxCell id="Q05lDvQQ7-CmcgwzlYSV-286" value="Available Time Slots" style="rounded=0;whiteSpace=wrap;html=1;" parent="1" vertex="1">
          <mxGeometry x="624" y="2480" width="120" height="60" as="geometry" />
        </mxCell>
        <mxCell id="Q05lDvQQ7-CmcgwzlYSV-287" value="Appointment Confirmation" style="rounded=0;whiteSpace=wrap;html=1;" parent="1" vertex="1">
          <mxGeometry x="794" y="2480" width="120" height="60" as="geometry" />
        </mxCell>
        <mxCell id="Q05lDvQQ7-CmcgwzlYSV-288" value="" style="endArrow=none;html=1;rounded=0;" parent="1" edge="1">
          <mxGeometry width="50" height="50" relative="1" as="geometry">
            <mxPoint x="752.75" y="2425" as="sourcePoint" />
            <mxPoint x="752.75" y="2375" as="targetPoint" />
          </mxGeometry>
        </mxCell>
        <mxCell id="Q05lDvQQ7-CmcgwzlYSV-289" value="" style="endArrow=none;html=1;rounded=0;" parent="1" edge="1">
          <mxGeometry width="50" height="50" relative="1" as="geometry">
            <mxPoint x="674" y="2425" as="sourcePoint" />
            <mxPoint x="754" y="2425" as="targetPoint" />
          </mxGeometry>
        </mxCell>
        <mxCell id="Q05lDvQQ7-CmcgwzlYSV-290" value="" style="endArrow=none;html=1;rounded=0;" parent="1" edge="1">
          <mxGeometry width="50" height="50" relative="1" as="geometry">
            <mxPoint x="754" y="2425" as="sourcePoint" />
            <mxPoint x="854" y="2425" as="targetPoint" />
          </mxGeometry>
        </mxCell>
        <mxCell id="Q05lDvQQ7-CmcgwzlYSV-291" value="" style="endArrow=none;html=1;rounded=0;entryX=0.5;entryY=0;entryDx=0;entryDy=0;" parent="1" edge="1">
          <mxGeometry width="50" height="50" relative="1" as="geometry">
            <mxPoint x="674.0000000000001" y="2420" as="sourcePoint" />
            <mxPoint x="674.0000000000001" y="2480" as="targetPoint" />
          </mxGeometry>
        </mxCell>
        <mxCell id="Q05lDvQQ7-CmcgwzlYSV-292" value="" style="endArrow=none;html=1;rounded=0;entryX=0.5;entryY=0;entryDx=0;entryDy=0;" parent="1" edge="1">
          <mxGeometry width="50" height="50" relative="1" as="geometry">
            <mxPoint x="854" y="2420" as="sourcePoint" />
            <mxPoint x="854" y="2480" as="targetPoint" />
          </mxGeometry>
        </mxCell>
        <mxCell id="Q05lDvQQ7-CmcgwzlYSV-293" value="" style="endArrow=none;html=1;rounded=0;exitX=0.5;exitY=0;exitDx=0;exitDy=0;" parent="1" source="Q05lDvQQ7-CmcgwzlYSV-285" edge="1">
          <mxGeometry width="50" height="50" relative="1" as="geometry">
            <mxPoint x="704" y="2320" as="sourcePoint" />
            <mxPoint x="754" y="2270" as="targetPoint" />
          </mxGeometry>
        </mxCell>
        <mxCell id="Q05lDvQQ7-CmcgwzlYSV-294" value="" style="endArrow=none;html=1;rounded=0;" parent="1" edge="1">
          <mxGeometry width="50" height="50" relative="1" as="geometry">
            <mxPoint x="410" y="2140" as="sourcePoint" />
            <mxPoint x="410" y="2100" as="targetPoint" />
          </mxGeometry>
        </mxCell>
        <mxCell id="Q05lDvQQ7-CmcgwzlYSV-295" value="" style="endArrow=none;html=1;rounded=0;" parent="1" edge="1">
          <mxGeometry width="50" height="50" relative="1" as="geometry">
            <mxPoint x="180" y="2140" as="sourcePoint" />
            <mxPoint x="410" y="2140" as="targetPoint" />
          </mxGeometry>
        </mxCell>
        <mxCell id="Q05lDvQQ7-CmcgwzlYSV-297" value="" style="endArrow=none;html=1;rounded=0;" parent="1" edge="1">
          <mxGeometry width="50" height="50" relative="1" as="geometry">
            <mxPoint x="490" y="2140" as="sourcePoint" />
            <mxPoint x="410" y="2140" as="targetPoint" />
          </mxGeometry>
        </mxCell>
        <mxCell id="Q05lDvQQ7-CmcgwzlYSV-298" value="Content" style="rounded=0;whiteSpace=wrap;html=1;" parent="1" vertex="1">
          <mxGeometry x="60" y="2120" width="120" height="60" as="geometry" />
        </mxCell>
        <mxCell id="Q05lDvQQ7-CmcgwzlYSV-299" value="" style="endArrow=none;html=1;rounded=0;" parent="1" edge="1">
          <mxGeometry width="50" height="50" relative="1" as="geometry">
            <mxPoint x="120" y="2230" as="sourcePoint" />
            <mxPoint x="120" y="2180" as="targetPoint" />
          </mxGeometry>
        </mxCell>
        <mxCell id="Q05lDvQQ7-CmcgwzlYSV-300" value="Consultation Information" style="rounded=0;whiteSpace=wrap;html=1;" parent="1" vertex="1">
          <mxGeometry x="60" y="2220" width="120" height="60" as="geometry" />
        </mxCell>
        <mxCell id="Q05lDvQQ7-CmcgwzlYSV-304" value="GUI Features" style="rounded=0;whiteSpace=wrap;html=1;" parent="1" vertex="1">
          <mxGeometry x="384.5" y="1130" width="120" height="60" as="geometry" />
        </mxCell>
        <mxCell id="Q05lDvQQ7-CmcgwzlYSV-305" value="" style="endArrow=none;html=1;rounded=0;" parent="1" edge="1">
          <mxGeometry width="50" height="50" relative="1" as="geometry">
            <mxPoint x="444.5" y="1225" as="sourcePoint" />
            <mxPoint x="444.5" y="1225" as="targetPoint" />
          </mxGeometry>
        </mxCell>
        <mxCell id="Q05lDvQQ7-CmcgwzlYSV-306" value="Services Page" style="rounded=0;whiteSpace=wrap;html=1;" parent="1" vertex="1">
          <mxGeometry x="310.5" y="1000" width="120" height="60" as="geometry" />
        </mxCell>
        <mxCell id="Q05lDvQQ7-CmcgwzlYSV-307" value="" style="endArrow=none;html=1;rounded=0;exitX=0.5;exitY=0;exitDx=0;exitDy=0;" parent="1" source="Q05lDvQQ7-CmcgwzlYSV-304" edge="1">
          <mxGeometry width="50" height="50" relative="1" as="geometry">
            <mxPoint x="380.5" y="1160" as="sourcePoint" />
            <mxPoint x="444.5" y="1100" as="targetPoint" />
          </mxGeometry>
        </mxCell>
        <mxCell id="Q05lDvQQ7-CmcgwzlYSV-308" value="" style="endArrow=none;html=1;rounded=0;" parent="1" edge="1">
          <mxGeometry width="50" height="50" relative="1" as="geometry">
            <mxPoint x="444.5" y="1230" as="sourcePoint" />
            <mxPoint x="444.5" y="1190" as="targetPoint" />
          </mxGeometry>
        </mxCell>
        <mxCell id="Q05lDvQQ7-CmcgwzlYSV-309" value="" style="endArrow=none;html=1;rounded=0;" parent="1" edge="1">
          <mxGeometry width="50" height="50" relative="1" as="geometry">
            <mxPoint x="365.5" y="1100" as="sourcePoint" />
            <mxPoint x="365.5" y="1060" as="targetPoint" />
          </mxGeometry>
        </mxCell>
        <mxCell id="Q05lDvQQ7-CmcgwzlYSV-310" value="" style="endArrow=none;html=1;rounded=0;" parent="1" edge="1">
          <mxGeometry width="50" height="50" relative="1" as="geometry">
            <mxPoint x="135.5" y="1100" as="sourcePoint" />
            <mxPoint x="365.5" y="1100" as="targetPoint" />
          </mxGeometry>
        </mxCell>
        <mxCell id="Q05lDvQQ7-CmcgwzlYSV-311" value="" style="endArrow=none;html=1;rounded=0;" parent="1" edge="1">
          <mxGeometry width="50" height="50" relative="1" as="geometry">
            <mxPoint x="445.5" y="1100" as="sourcePoint" />
            <mxPoint x="365.5" y="1100" as="targetPoint" />
          </mxGeometry>
        </mxCell>
        <mxCell id="Q05lDvQQ7-CmcgwzlYSV-312" value="Content" style="rounded=0;whiteSpace=wrap;html=1;" parent="1" vertex="1">
          <mxGeometry x="15.5" y="1080" width="120" height="60" as="geometry" />
        </mxCell>
        <mxCell id="Q05lDvQQ7-CmcgwzlYSV-313" value="" style="endArrow=none;html=1;rounded=0;" parent="1" edge="1">
          <mxGeometry width="50" height="50" relative="1" as="geometry">
            <mxPoint x="75.5" y="1190" as="sourcePoint" />
            <mxPoint x="75.5" y="1140" as="targetPoint" />
          </mxGeometry>
        </mxCell>
        <mxCell id="Q05lDvQQ7-CmcgwzlYSV-314" value="&lt;meta charset=&quot;utf-8&quot;&gt;&lt;span style=&quot;color: rgb(0, 0, 0); font-family: Helvetica; font-size: 12px; font-style: normal; font-variant-ligatures: normal; font-variant-caps: normal; font-weight: 400; letter-spacing: normal; orphans: 2; text-align: center; text-indent: 0px; text-transform: none; widows: 2; word-spacing: 0px; -webkit-text-stroke-width: 0px; white-space: normal; background-color: rgb(251, 251, 251); text-decoration-thickness: initial; text-decoration-style: initial; text-decoration-color: initial; display: inline !important; float: none;&quot;&gt;Product Information&lt;/span&gt;" style="rounded=0;whiteSpace=wrap;html=1;" parent="1" vertex="1">
          <mxGeometry x="15.5" y="1180" width="120" height="60" as="geometry" />
        </mxCell>
        <mxCell id="Q05lDvQQ7-CmcgwzlYSV-326" value="GUI Features" style="rounded=0;whiteSpace=wrap;html=1;" parent="1" vertex="1">
          <mxGeometry x="452" y="3150" width="120" height="60" as="geometry" />
        </mxCell>
        <mxCell id="Q05lDvQQ7-CmcgwzlYSV-327" value="Input Form" style="rounded=0;whiteSpace=wrap;html=1;" parent="1" vertex="1">
          <mxGeometry x="372" y="3280" width="120" height="60" as="geometry" />
        </mxCell>
        <mxCell id="Q05lDvQQ7-CmcgwzlYSV-328" value="" style="endArrow=none;html=1;rounded=0;" parent="1" edge="1">
          <mxGeometry width="50" height="50" relative="1" as="geometry">
            <mxPoint x="512" y="3245" as="sourcePoint" />
            <mxPoint x="512" y="3245" as="targetPoint" />
          </mxGeometry>
        </mxCell>
        <mxCell id="Q05lDvQQ7-CmcgwzlYSV-329" value="" style="endArrow=none;html=1;rounded=0;exitX=0.5;exitY=0;exitDx=0;exitDy=0;" parent="1" source="Q05lDvQQ7-CmcgwzlYSV-327" edge="1">
          <mxGeometry width="50" height="50" relative="1" as="geometry">
            <mxPoint x="432" y="3275" as="sourcePoint" />
            <mxPoint x="432" y="3250" as="targetPoint" />
          </mxGeometry>
        </mxCell>
        <mxCell id="Q05lDvQQ7-CmcgwzlYSV-330" value="Travel Data Fields" style="rounded=0;whiteSpace=wrap;html=1;" parent="1" vertex="1">
          <mxGeometry x="437" y="3470" width="120" height="60" as="geometry" />
        </mxCell>
        <mxCell id="Q05lDvQQ7-CmcgwzlYSV-331" value="" style="endArrow=none;html=1;rounded=0;" parent="1" edge="1">
          <mxGeometry width="50" height="50" relative="1" as="geometry">
            <mxPoint x="347" y="3390" as="sourcePoint" />
            <mxPoint x="497" y="3390" as="targetPoint" />
          </mxGeometry>
        </mxCell>
        <mxCell id="Q05lDvQQ7-CmcgwzlYSV-332" value="" style="endArrow=none;html=1;rounded=0;exitX=0.5;exitY=0;exitDx=0;exitDy=0;" parent="1" source="Q05lDvQQ7-CmcgwzlYSV-346" edge="1">
          <mxGeometry width="50" height="50" relative="1" as="geometry">
            <mxPoint x="347" y="3430" as="sourcePoint" />
            <mxPoint x="347" y="3390" as="targetPoint" />
          </mxGeometry>
        </mxCell>
        <mxCell id="Q05lDvQQ7-CmcgwzlYSV-333" value="Carbon Footprint Calculator page" style="rounded=0;whiteSpace=wrap;html=1;" parent="1" vertex="1">
          <mxGeometry x="378" y="3020" width="120" height="60" as="geometry" />
        </mxCell>
        <mxCell id="Q05lDvQQ7-CmcgwzlYSV-334" value="" style="endArrow=none;html=1;rounded=0;exitX=0.5;exitY=0;exitDx=0;exitDy=0;" parent="1" source="Q05lDvQQ7-CmcgwzlYSV-326" edge="1">
          <mxGeometry width="50" height="50" relative="1" as="geometry">
            <mxPoint x="448" y="3180" as="sourcePoint" />
            <mxPoint x="512" y="3120" as="targetPoint" />
          </mxGeometry>
        </mxCell>
        <mxCell id="Q05lDvQQ7-CmcgwzlYSV-335" value="" style="endArrow=none;html=1;rounded=0;" parent="1" edge="1">
          <mxGeometry width="50" height="50" relative="1" as="geometry">
            <mxPoint x="432" y="3250" as="sourcePoint" />
            <mxPoint x="1147" y="3250" as="targetPoint" />
          </mxGeometry>
        </mxCell>
        <mxCell id="Q05lDvQQ7-CmcgwzlYSV-336" value="" style="endArrow=none;html=1;rounded=0;exitX=0.5;exitY=0;exitDx=0;exitDy=0;" parent="1" edge="1">
          <mxGeometry width="50" height="50" relative="1" as="geometry">
            <mxPoint x="1147" y="3295" as="sourcePoint" />
            <mxPoint x="1147" y="3250" as="targetPoint" />
          </mxGeometry>
        </mxCell>
        <mxCell id="Q05lDvQQ7-CmcgwzlYSV-337" value="" style="endArrow=none;html=1;rounded=0;" parent="1" edge="1">
          <mxGeometry width="50" height="50" relative="1" as="geometry">
            <mxPoint x="512" y="3250" as="sourcePoint" />
            <mxPoint x="512" y="3210" as="targetPoint" />
          </mxGeometry>
        </mxCell>
        <mxCell id="Q05lDvQQ7-CmcgwzlYSV-338" value="Back-End" style="rounded=0;whiteSpace=wrap;html=1;" parent="1" vertex="1">
          <mxGeometry x="1087" y="3295" width="120" height="60" as="geometry" />
        </mxCell>
        <mxCell id="Q05lDvQQ7-CmcgwzlYSV-339" value="Database: Stores user input and historical data" style="rounded=0;whiteSpace=wrap;html=1;" parent="1" vertex="1">
          <mxGeometry x="1007" y="3465" width="120" height="60" as="geometry" />
        </mxCell>
        <mxCell id="Q05lDvQQ7-CmcgwzlYSV-340" value="API:(Performs Calculations )" style="rounded=0;whiteSpace=wrap;html=1;" parent="1" vertex="1">
          <mxGeometry x="1187" y="3465" width="120" height="60" as="geometry" />
        </mxCell>
        <mxCell id="Q05lDvQQ7-CmcgwzlYSV-341" value="" style="endArrow=none;html=1;rounded=0;" parent="1" edge="1">
          <mxGeometry width="50" height="50" relative="1" as="geometry">
            <mxPoint x="1147" y="3405" as="sourcePoint" />
            <mxPoint x="1147" y="3355" as="targetPoint" />
          </mxGeometry>
        </mxCell>
        <mxCell id="Q05lDvQQ7-CmcgwzlYSV-342" value="" style="endArrow=none;html=1;rounded=0;" parent="1" edge="1">
          <mxGeometry width="50" height="50" relative="1" as="geometry">
            <mxPoint x="1067" y="3405" as="sourcePoint" />
            <mxPoint x="1147" y="3405" as="targetPoint" />
          </mxGeometry>
        </mxCell>
        <mxCell id="Q05lDvQQ7-CmcgwzlYSV-343" value="" style="endArrow=none;html=1;rounded=0;" parent="1" edge="1">
          <mxGeometry width="50" height="50" relative="1" as="geometry">
            <mxPoint x="1147" y="3405" as="sourcePoint" />
            <mxPoint x="1247" y="3405" as="targetPoint" />
          </mxGeometry>
        </mxCell>
        <mxCell id="Q05lDvQQ7-CmcgwzlYSV-344" value="" style="endArrow=none;html=1;rounded=0;entryX=0.5;entryY=0;entryDx=0;entryDy=0;" parent="1" target="Q05lDvQQ7-CmcgwzlYSV-340" edge="1">
          <mxGeometry width="50" height="50" relative="1" as="geometry">
            <mxPoint x="1247" y="3405" as="sourcePoint" />
            <mxPoint x="1297" y="3355" as="targetPoint" />
          </mxGeometry>
        </mxCell>
        <mxCell id="Q05lDvQQ7-CmcgwzlYSV-345" value="" style="endArrow=none;html=1;rounded=0;entryX=0.5;entryY=0;entryDx=0;entryDy=0;" parent="1" edge="1">
          <mxGeometry width="50" height="50" relative="1" as="geometry">
            <mxPoint x="1066.17" y="3405" as="sourcePoint" />
            <mxPoint x="1066.17" y="3465" as="targetPoint" />
          </mxGeometry>
        </mxCell>
        <mxCell id="Q05lDvQQ7-CmcgwzlYSV-346" value="Energy Usage Fields" style="rounded=0;whiteSpace=wrap;html=1;" parent="1" vertex="1">
          <mxGeometry x="287" y="3470" width="120" height="60" as="geometry" />
        </mxCell>
        <mxCell id="Q05lDvQQ7-CmcgwzlYSV-347" value="" style="endArrow=none;html=1;rounded=0;" parent="1" edge="1">
          <mxGeometry width="50" height="50" relative="1" as="geometry">
            <mxPoint x="427" y="3390" as="sourcePoint" />
            <mxPoint x="427" y="3340" as="targetPoint" />
          </mxGeometry>
        </mxCell>
        <mxCell id="Q05lDvQQ7-CmcgwzlYSV-348" value="" style="endArrow=none;html=1;rounded=0;" parent="1" edge="1">
          <mxGeometry width="50" height="50" relative="1" as="geometry">
            <mxPoint x="497" y="3470" as="sourcePoint" />
            <mxPoint x="497" y="3390" as="targetPoint" />
          </mxGeometry>
        </mxCell>
        <mxCell id="Q05lDvQQ7-CmcgwzlYSV-349" value="Results Display" style="rounded=0;whiteSpace=wrap;html=1;" parent="1" vertex="1">
          <mxGeometry x="717" y="3295" width="120" height="60" as="geometry" />
        </mxCell>
        <mxCell id="Q05lDvQQ7-CmcgwzlYSV-350" value="Carbon Footprint Score" style="rounded=0;whiteSpace=wrap;html=1;" parent="1" vertex="1">
          <mxGeometry x="647" y="3460" width="120" height="60" as="geometry" />
        </mxCell>
        <mxCell id="Q05lDvQQ7-CmcgwzlYSV-351" value="Graphical Representation (Chart/Graph)" style="rounded=0;whiteSpace=wrap;html=1;" parent="1" vertex="1">
          <mxGeometry x="817" y="3460" width="120" height="60" as="geometry" />
        </mxCell>
        <mxCell id="Q05lDvQQ7-CmcgwzlYSV-352" value="" style="endArrow=none;html=1;rounded=0;" parent="1" edge="1">
          <mxGeometry width="50" height="50" relative="1" as="geometry">
            <mxPoint x="775.75" y="3405" as="sourcePoint" />
            <mxPoint x="775.75" y="3355" as="targetPoint" />
          </mxGeometry>
        </mxCell>
        <mxCell id="Q05lDvQQ7-CmcgwzlYSV-353" value="" style="endArrow=none;html=1;rounded=0;" parent="1" edge="1">
          <mxGeometry width="50" height="50" relative="1" as="geometry">
            <mxPoint x="697" y="3405" as="sourcePoint" />
            <mxPoint x="777" y="3405" as="targetPoint" />
          </mxGeometry>
        </mxCell>
        <mxCell id="Q05lDvQQ7-CmcgwzlYSV-354" value="" style="endArrow=none;html=1;rounded=0;" parent="1" edge="1">
          <mxGeometry width="50" height="50" relative="1" as="geometry">
            <mxPoint x="777" y="3405" as="sourcePoint" />
            <mxPoint x="877" y="3405" as="targetPoint" />
          </mxGeometry>
        </mxCell>
        <mxCell id="Q05lDvQQ7-CmcgwzlYSV-355" value="" style="endArrow=none;html=1;rounded=0;entryX=0.5;entryY=0;entryDx=0;entryDy=0;" parent="1" edge="1">
          <mxGeometry width="50" height="50" relative="1" as="geometry">
            <mxPoint x="697.0000000000001" y="3400" as="sourcePoint" />
            <mxPoint x="697.0000000000001" y="3460" as="targetPoint" />
          </mxGeometry>
        </mxCell>
        <mxCell id="Q05lDvQQ7-CmcgwzlYSV-356" value="" style="endArrow=none;html=1;rounded=0;entryX=0.5;entryY=0;entryDx=0;entryDy=0;" parent="1" edge="1">
          <mxGeometry width="50" height="50" relative="1" as="geometry">
            <mxPoint x="877" y="3400" as="sourcePoint" />
            <mxPoint x="877" y="3460" as="targetPoint" />
          </mxGeometry>
        </mxCell>
        <mxCell id="Q05lDvQQ7-CmcgwzlYSV-357" value="" style="endArrow=none;html=1;rounded=0;exitX=0.5;exitY=0;exitDx=0;exitDy=0;" parent="1" source="Q05lDvQQ7-CmcgwzlYSV-349" edge="1">
          <mxGeometry width="50" height="50" relative="1" as="geometry">
            <mxPoint x="727" y="3300" as="sourcePoint" />
            <mxPoint x="777" y="3250" as="targetPoint" />
          </mxGeometry>
        </mxCell>
        <mxCell id="Q05lDvQQ7-CmcgwzlYSV-358" value="" style="endArrow=none;html=1;rounded=0;" parent="1" edge="1">
          <mxGeometry width="50" height="50" relative="1" as="geometry">
            <mxPoint x="433" y="3120" as="sourcePoint" />
            <mxPoint x="433" y="3080" as="targetPoint" />
          </mxGeometry>
        </mxCell>
        <mxCell id="Q05lDvQQ7-CmcgwzlYSV-359" value="" style="endArrow=none;html=1;rounded=0;" parent="1" edge="1">
          <mxGeometry width="50" height="50" relative="1" as="geometry">
            <mxPoint x="203" y="3120" as="sourcePoint" />
            <mxPoint x="433" y="3120" as="targetPoint" />
          </mxGeometry>
        </mxCell>
        <mxCell id="Q05lDvQQ7-CmcgwzlYSV-360" value="" style="endArrow=none;html=1;rounded=0;" parent="1" edge="1">
          <mxGeometry width="50" height="50" relative="1" as="geometry">
            <mxPoint x="513" y="3120" as="sourcePoint" />
            <mxPoint x="433" y="3120" as="targetPoint" />
          </mxGeometry>
        </mxCell>
        <mxCell id="Q05lDvQQ7-CmcgwzlYSV-361" value="Content" style="rounded=0;whiteSpace=wrap;html=1;" parent="1" vertex="1">
          <mxGeometry x="83" y="3100" width="120" height="60" as="geometry" />
        </mxCell>
        <mxCell id="Q05lDvQQ7-CmcgwzlYSV-362" value="" style="endArrow=none;html=1;rounded=0;" parent="1" edge="1">
          <mxGeometry width="50" height="50" relative="1" as="geometry">
            <mxPoint x="143" y="3210" as="sourcePoint" />
            <mxPoint x="143" y="3160" as="targetPoint" />
          </mxGeometry>
        </mxCell>
        <mxCell id="Q05lDvQQ7-CmcgwzlYSV-363" value="Carbon Footprint Information" style="rounded=0;whiteSpace=wrap;html=1;" parent="1" vertex="1">
          <mxGeometry x="83" y="3200" width="120" height="60" as="geometry" />
        </mxCell>
        <mxCell id="Q05lDvQQ7-CmcgwzlYSV-364" value="GUI Features" style="rounded=0;whiteSpace=wrap;html=1;" parent="1" vertex="1">
          <mxGeometry x="499" y="4120" width="120" height="60" as="geometry" />
        </mxCell>
        <mxCell id="Q05lDvQQ7-CmcgwzlYSV-365" value="Real Time Energy Usage Dashboard" style="rounded=0;whiteSpace=wrap;html=1;" parent="1" vertex="1">
          <mxGeometry x="419" y="4250" width="120" height="60" as="geometry" />
        </mxCell>
        <mxCell id="Q05lDvQQ7-CmcgwzlYSV-366" value="" style="endArrow=none;html=1;rounded=0;" parent="1" edge="1">
          <mxGeometry width="50" height="50" relative="1" as="geometry">
            <mxPoint x="559" y="4215" as="sourcePoint" />
            <mxPoint x="559" y="4215" as="targetPoint" />
          </mxGeometry>
        </mxCell>
        <mxCell id="Q05lDvQQ7-CmcgwzlYSV-367" value="" style="endArrow=none;html=1;rounded=0;exitX=0.5;exitY=0;exitDx=0;exitDy=0;" parent="1" source="Q05lDvQQ7-CmcgwzlYSV-365" edge="1">
          <mxGeometry width="50" height="50" relative="1" as="geometry">
            <mxPoint x="479" y="4245" as="sourcePoint" />
            <mxPoint x="479" y="4220" as="targetPoint" />
          </mxGeometry>
        </mxCell>
        <mxCell id="Q05lDvQQ7-CmcgwzlYSV-368" value="Current Usage Metrics" style="rounded=0;whiteSpace=wrap;html=1;" parent="1" vertex="1">
          <mxGeometry x="484" y="4440" width="120" height="60" as="geometry" />
        </mxCell>
        <mxCell id="Q05lDvQQ7-CmcgwzlYSV-369" value="" style="endArrow=none;html=1;rounded=0;" parent="1" edge="1">
          <mxGeometry width="50" height="50" relative="1" as="geometry">
            <mxPoint x="394" y="4360" as="sourcePoint" />
            <mxPoint x="544" y="4360" as="targetPoint" />
          </mxGeometry>
        </mxCell>
        <mxCell id="Q05lDvQQ7-CmcgwzlYSV-370" value="" style="endArrow=none;html=1;rounded=0;exitX=0.5;exitY=0;exitDx=0;exitDy=0;" parent="1" source="Q05lDvQQ7-CmcgwzlYSV-384" edge="1">
          <mxGeometry width="50" height="50" relative="1" as="geometry">
            <mxPoint x="394" y="4400" as="sourcePoint" />
            <mxPoint x="394" y="4360" as="targetPoint" />
          </mxGeometry>
        </mxCell>
        <mxCell id="Q05lDvQQ7-CmcgwzlYSV-371" value="Energy Usage Monitoring Page" style="rounded=0;whiteSpace=wrap;html=1;" parent="1" vertex="1">
          <mxGeometry x="425" y="3990" width="120" height="60" as="geometry" />
        </mxCell>
        <mxCell id="Q05lDvQQ7-CmcgwzlYSV-372" value="" style="endArrow=none;html=1;rounded=0;exitX=0.5;exitY=0;exitDx=0;exitDy=0;" parent="1" source="Q05lDvQQ7-CmcgwzlYSV-364" edge="1">
          <mxGeometry width="50" height="50" relative="1" as="geometry">
            <mxPoint x="495" y="4150" as="sourcePoint" />
            <mxPoint x="559" y="4090" as="targetPoint" />
          </mxGeometry>
        </mxCell>
        <mxCell id="Q05lDvQQ7-CmcgwzlYSV-373" value="" style="endArrow=none;html=1;rounded=0;" parent="1" edge="1">
          <mxGeometry width="50" height="50" relative="1" as="geometry">
            <mxPoint x="479" y="4220" as="sourcePoint" />
            <mxPoint x="1194" y="4220" as="targetPoint" />
          </mxGeometry>
        </mxCell>
        <mxCell id="Q05lDvQQ7-CmcgwzlYSV-374" value="" style="endArrow=none;html=1;rounded=0;exitX=0.5;exitY=0;exitDx=0;exitDy=0;" parent="1" edge="1">
          <mxGeometry width="50" height="50" relative="1" as="geometry">
            <mxPoint x="1194" y="4265" as="sourcePoint" />
            <mxPoint x="1194" y="4220" as="targetPoint" />
          </mxGeometry>
        </mxCell>
        <mxCell id="Q05lDvQQ7-CmcgwzlYSV-375" value="" style="endArrow=none;html=1;rounded=0;" parent="1" edge="1">
          <mxGeometry width="50" height="50" relative="1" as="geometry">
            <mxPoint x="559" y="4220" as="sourcePoint" />
            <mxPoint x="559" y="4180" as="targetPoint" />
          </mxGeometry>
        </mxCell>
        <mxCell id="Q05lDvQQ7-CmcgwzlYSV-376" value="Back-End" style="rounded=0;whiteSpace=wrap;html=1;" parent="1" vertex="1">
          <mxGeometry x="1134" y="4265" width="120" height="60" as="geometry" />
        </mxCell>
        <mxCell id="Q05lDvQQ7-CmcgwzlYSV-377" value="Database: Stores energy usage data" style="rounded=0;whiteSpace=wrap;html=1;" parent="1" vertex="1">
          <mxGeometry x="1054" y="4435" width="120" height="60" as="geometry" />
        </mxCell>
        <mxCell id="Q05lDvQQ7-CmcgwzlYSV-378" value="API:(Fetches and processes energy usage data )" style="rounded=0;whiteSpace=wrap;html=1;" parent="1" vertex="1">
          <mxGeometry x="1234" y="4435" width="120" height="60" as="geometry" />
        </mxCell>
        <mxCell id="Q05lDvQQ7-CmcgwzlYSV-379" value="" style="endArrow=none;html=1;rounded=0;" parent="1" edge="1">
          <mxGeometry width="50" height="50" relative="1" as="geometry">
            <mxPoint x="1194" y="4375" as="sourcePoint" />
            <mxPoint x="1194" y="4325" as="targetPoint" />
          </mxGeometry>
        </mxCell>
        <mxCell id="Q05lDvQQ7-CmcgwzlYSV-380" value="" style="endArrow=none;html=1;rounded=0;" parent="1" edge="1">
          <mxGeometry width="50" height="50" relative="1" as="geometry">
            <mxPoint x="1114" y="4375" as="sourcePoint" />
            <mxPoint x="1194" y="4375" as="targetPoint" />
          </mxGeometry>
        </mxCell>
        <mxCell id="Q05lDvQQ7-CmcgwzlYSV-381" value="" style="endArrow=none;html=1;rounded=0;" parent="1" edge="1">
          <mxGeometry width="50" height="50" relative="1" as="geometry">
            <mxPoint x="1194" y="4375" as="sourcePoint" />
            <mxPoint x="1294" y="4375" as="targetPoint" />
          </mxGeometry>
        </mxCell>
        <mxCell id="Q05lDvQQ7-CmcgwzlYSV-382" value="" style="endArrow=none;html=1;rounded=0;entryX=0.5;entryY=0;entryDx=0;entryDy=0;" parent="1" target="Q05lDvQQ7-CmcgwzlYSV-378" edge="1">
          <mxGeometry width="50" height="50" relative="1" as="geometry">
            <mxPoint x="1294" y="4375" as="sourcePoint" />
            <mxPoint x="1344" y="4325" as="targetPoint" />
          </mxGeometry>
        </mxCell>
        <mxCell id="Q05lDvQQ7-CmcgwzlYSV-383" value="" style="endArrow=none;html=1;rounded=0;entryX=0.5;entryY=0;entryDx=0;entryDy=0;" parent="1" edge="1">
          <mxGeometry width="50" height="50" relative="1" as="geometry">
            <mxPoint x="1113.17" y="4375" as="sourcePoint" />
            <mxPoint x="1113.17" y="4435" as="targetPoint" />
          </mxGeometry>
        </mxCell>
        <mxCell id="Q05lDvQQ7-CmcgwzlYSV-384" value="Live Usage Graph" style="rounded=0;whiteSpace=wrap;html=1;" parent="1" vertex="1">
          <mxGeometry x="334" y="4440" width="120" height="60" as="geometry" />
        </mxCell>
        <mxCell id="Q05lDvQQ7-CmcgwzlYSV-385" value="" style="endArrow=none;html=1;rounded=0;" parent="1" edge="1">
          <mxGeometry width="50" height="50" relative="1" as="geometry">
            <mxPoint x="474" y="4360" as="sourcePoint" />
            <mxPoint x="474" y="4310" as="targetPoint" />
          </mxGeometry>
        </mxCell>
        <mxCell id="Q05lDvQQ7-CmcgwzlYSV-386" value="" style="endArrow=none;html=1;rounded=0;" parent="1" edge="1">
          <mxGeometry width="50" height="50" relative="1" as="geometry">
            <mxPoint x="544" y="4440" as="sourcePoint" />
            <mxPoint x="544" y="4360" as="targetPoint" />
          </mxGeometry>
        </mxCell>
        <mxCell id="Q05lDvQQ7-CmcgwzlYSV-387" value="Historical Usage Viewer" style="rounded=0;whiteSpace=wrap;html=1;" parent="1" vertex="1">
          <mxGeometry x="764" y="4265" width="120" height="60" as="geometry" />
        </mxCell>
        <mxCell id="Q05lDvQQ7-CmcgwzlYSV-388" value="Date Range Selector" style="rounded=0;whiteSpace=wrap;html=1;" parent="1" vertex="1">
          <mxGeometry x="694" y="4430" width="120" height="60" as="geometry" />
        </mxCell>
        <mxCell id="Q05lDvQQ7-CmcgwzlYSV-389" value="Usage Trends Over Time" style="rounded=0;whiteSpace=wrap;html=1;" parent="1" vertex="1">
          <mxGeometry x="864" y="4430" width="120" height="60" as="geometry" />
        </mxCell>
        <mxCell id="Q05lDvQQ7-CmcgwzlYSV-390" value="" style="endArrow=none;html=1;rounded=0;" parent="1" edge="1">
          <mxGeometry width="50" height="50" relative="1" as="geometry">
            <mxPoint x="822.75" y="4375" as="sourcePoint" />
            <mxPoint x="822.75" y="4325" as="targetPoint" />
          </mxGeometry>
        </mxCell>
        <mxCell id="Q05lDvQQ7-CmcgwzlYSV-391" value="" style="endArrow=none;html=1;rounded=0;" parent="1" edge="1">
          <mxGeometry width="50" height="50" relative="1" as="geometry">
            <mxPoint x="744" y="4375" as="sourcePoint" />
            <mxPoint x="824" y="4375" as="targetPoint" />
          </mxGeometry>
        </mxCell>
        <mxCell id="Q05lDvQQ7-CmcgwzlYSV-392" value="" style="endArrow=none;html=1;rounded=0;" parent="1" edge="1">
          <mxGeometry width="50" height="50" relative="1" as="geometry">
            <mxPoint x="824" y="4375" as="sourcePoint" />
            <mxPoint x="924" y="4375" as="targetPoint" />
          </mxGeometry>
        </mxCell>
        <mxCell id="Q05lDvQQ7-CmcgwzlYSV-393" value="" style="endArrow=none;html=1;rounded=0;entryX=0.5;entryY=0;entryDx=0;entryDy=0;" parent="1" edge="1">
          <mxGeometry width="50" height="50" relative="1" as="geometry">
            <mxPoint x="744.0000000000001" y="4370" as="sourcePoint" />
            <mxPoint x="744.0000000000001" y="4430" as="targetPoint" />
          </mxGeometry>
        </mxCell>
        <mxCell id="Q05lDvQQ7-CmcgwzlYSV-394" value="" style="endArrow=none;html=1;rounded=0;entryX=0.5;entryY=0;entryDx=0;entryDy=0;" parent="1" edge="1">
          <mxGeometry width="50" height="50" relative="1" as="geometry">
            <mxPoint x="924" y="4370" as="sourcePoint" />
            <mxPoint x="924" y="4430" as="targetPoint" />
          </mxGeometry>
        </mxCell>
        <mxCell id="Q05lDvQQ7-CmcgwzlYSV-395" value="" style="endArrow=none;html=1;rounded=0;exitX=0.5;exitY=0;exitDx=0;exitDy=0;" parent="1" source="Q05lDvQQ7-CmcgwzlYSV-387" edge="1">
          <mxGeometry width="50" height="50" relative="1" as="geometry">
            <mxPoint x="774" y="4270" as="sourcePoint" />
            <mxPoint x="824" y="4220" as="targetPoint" />
          </mxGeometry>
        </mxCell>
        <mxCell id="Q05lDvQQ7-CmcgwzlYSV-396" value="" style="endArrow=none;html=1;rounded=0;" parent="1" edge="1">
          <mxGeometry width="50" height="50" relative="1" as="geometry">
            <mxPoint x="480" y="4090" as="sourcePoint" />
            <mxPoint x="480" y="4050" as="targetPoint" />
          </mxGeometry>
        </mxCell>
        <mxCell id="Q05lDvQQ7-CmcgwzlYSV-397" value="" style="endArrow=none;html=1;rounded=0;" parent="1" edge="1">
          <mxGeometry width="50" height="50" relative="1" as="geometry">
            <mxPoint x="250" y="4090" as="sourcePoint" />
            <mxPoint x="480" y="4090" as="targetPoint" />
          </mxGeometry>
        </mxCell>
        <mxCell id="Q05lDvQQ7-CmcgwzlYSV-398" value="" style="endArrow=none;html=1;rounded=0;" parent="1" edge="1">
          <mxGeometry width="50" height="50" relative="1" as="geometry">
            <mxPoint x="560" y="4090" as="sourcePoint" />
            <mxPoint x="480" y="4090" as="targetPoint" />
          </mxGeometry>
        </mxCell>
        <mxCell id="Q05lDvQQ7-CmcgwzlYSV-399" value="Content" style="rounded=0;whiteSpace=wrap;html=1;" parent="1" vertex="1">
          <mxGeometry x="130" y="4070" width="120" height="60" as="geometry" />
        </mxCell>
        <mxCell id="Q05lDvQQ7-CmcgwzlYSV-400" value="" style="endArrow=none;html=1;rounded=0;" parent="1" edge="1">
          <mxGeometry width="50" height="50" relative="1" as="geometry">
            <mxPoint x="190" y="4180" as="sourcePoint" />
            <mxPoint x="190" y="4130" as="targetPoint" />
          </mxGeometry>
        </mxCell>
        <mxCell id="Q05lDvQQ7-CmcgwzlYSV-401" value="Energy Usage Information" style="rounded=0;whiteSpace=wrap;html=1;" parent="1" vertex="1">
          <mxGeometry x="130" y="4170" width="120" height="60" as="geometry" />
        </mxCell>
        <mxCell id="Q05lDvQQ7-CmcgwzlYSV-402" value="GUI Features" style="rounded=0;whiteSpace=wrap;html=1;" parent="1" vertex="1">
          <mxGeometry x="417" y="5100" width="120" height="60" as="geometry" />
        </mxCell>
        <mxCell id="Q05lDvQQ7-CmcgwzlYSV-403" value="Membership Tiers Display" style="rounded=0;whiteSpace=wrap;html=1;" parent="1" vertex="1">
          <mxGeometry x="337" y="5230" width="120" height="60" as="geometry" />
        </mxCell>
        <mxCell id="Q05lDvQQ7-CmcgwzlYSV-404" value="" style="endArrow=none;html=1;rounded=0;" parent="1" edge="1">
          <mxGeometry width="50" height="50" relative="1" as="geometry">
            <mxPoint x="477" y="5195" as="sourcePoint" />
            <mxPoint x="477" y="5195" as="targetPoint" />
          </mxGeometry>
        </mxCell>
        <mxCell id="Q05lDvQQ7-CmcgwzlYSV-405" value="" style="endArrow=none;html=1;rounded=0;exitX=0.5;exitY=0;exitDx=0;exitDy=0;" parent="1" source="Q05lDvQQ7-CmcgwzlYSV-403" edge="1">
          <mxGeometry width="50" height="50" relative="1" as="geometry">
            <mxPoint x="397" y="5225" as="sourcePoint" />
            <mxPoint x="397" y="5200" as="targetPoint" />
          </mxGeometry>
        </mxCell>
        <mxCell id="Q05lDvQQ7-CmcgwzlYSV-406" value="Premium Membership Card" style="rounded=0;whiteSpace=wrap;html=1;" parent="1" vertex="1">
          <mxGeometry x="402" y="5420" width="120" height="60" as="geometry" />
        </mxCell>
        <mxCell id="Q05lDvQQ7-CmcgwzlYSV-407" value="" style="endArrow=none;html=1;rounded=0;" parent="1" edge="1">
          <mxGeometry width="50" height="50" relative="1" as="geometry">
            <mxPoint x="312" y="5340" as="sourcePoint" />
            <mxPoint x="462" y="5340" as="targetPoint" />
          </mxGeometry>
        </mxCell>
        <mxCell id="Q05lDvQQ7-CmcgwzlYSV-408" value="" style="endArrow=none;html=1;rounded=0;exitX=0.5;exitY=0;exitDx=0;exitDy=0;" parent="1" source="Q05lDvQQ7-CmcgwzlYSV-422" edge="1">
          <mxGeometry width="50" height="50" relative="1" as="geometry">
            <mxPoint x="312" y="5380" as="sourcePoint" />
            <mxPoint x="312" y="5340" as="targetPoint" />
          </mxGeometry>
        </mxCell>
        <mxCell id="Q05lDvQQ7-CmcgwzlYSV-409" value="Membership Page" style="rounded=0;whiteSpace=wrap;html=1;" parent="1" vertex="1">
          <mxGeometry x="343" y="4970" width="120" height="60" as="geometry" />
        </mxCell>
        <mxCell id="Q05lDvQQ7-CmcgwzlYSV-410" value="" style="endArrow=none;html=1;rounded=0;exitX=0.5;exitY=0;exitDx=0;exitDy=0;" parent="1" source="Q05lDvQQ7-CmcgwzlYSV-402" edge="1">
          <mxGeometry width="50" height="50" relative="1" as="geometry">
            <mxPoint x="413" y="5130" as="sourcePoint" />
            <mxPoint x="477" y="5070" as="targetPoint" />
          </mxGeometry>
        </mxCell>
        <mxCell id="Q05lDvQQ7-CmcgwzlYSV-411" value="" style="endArrow=none;html=1;rounded=0;" parent="1" edge="1">
          <mxGeometry width="50" height="50" relative="1" as="geometry">
            <mxPoint x="397" y="5200" as="sourcePoint" />
            <mxPoint x="1112" y="5200" as="targetPoint" />
          </mxGeometry>
        </mxCell>
        <mxCell id="Q05lDvQQ7-CmcgwzlYSV-412" value="" style="endArrow=none;html=1;rounded=0;exitX=0.5;exitY=0;exitDx=0;exitDy=0;" parent="1" edge="1">
          <mxGeometry width="50" height="50" relative="1" as="geometry">
            <mxPoint x="1112" y="5245" as="sourcePoint" />
            <mxPoint x="1112" y="5200" as="targetPoint" />
          </mxGeometry>
        </mxCell>
        <mxCell id="Q05lDvQQ7-CmcgwzlYSV-413" value="" style="endArrow=none;html=1;rounded=0;" parent="1" edge="1">
          <mxGeometry width="50" height="50" relative="1" as="geometry">
            <mxPoint x="477" y="5200" as="sourcePoint" />
            <mxPoint x="477" y="5160" as="targetPoint" />
          </mxGeometry>
        </mxCell>
        <mxCell id="Q05lDvQQ7-CmcgwzlYSV-414" value="Back-End" style="rounded=0;whiteSpace=wrap;html=1;" parent="1" vertex="1">
          <mxGeometry x="1052" y="5245" width="120" height="60" as="geometry" />
        </mxCell>
        <mxCell id="Q05lDvQQ7-CmcgwzlYSV-415" value="Database: Stores membership data and user permissions" style="rounded=0;whiteSpace=wrap;html=1;" parent="1" vertex="1">
          <mxGeometry x="972" y="5415" width="120" height="60" as="geometry" />
        </mxCell>
        <mxCell id="Q05lDvQQ7-CmcgwzlYSV-416" value="API:(Manage membership upgrades and access control)" style="rounded=0;whiteSpace=wrap;html=1;" parent="1" vertex="1">
          <mxGeometry x="1152" y="5415" width="120" height="60" as="geometry" />
        </mxCell>
        <mxCell id="Q05lDvQQ7-CmcgwzlYSV-417" value="" style="endArrow=none;html=1;rounded=0;" parent="1" edge="1">
          <mxGeometry width="50" height="50" relative="1" as="geometry">
            <mxPoint x="1112" y="5355" as="sourcePoint" />
            <mxPoint x="1112" y="5305" as="targetPoint" />
          </mxGeometry>
        </mxCell>
        <mxCell id="Q05lDvQQ7-CmcgwzlYSV-418" value="" style="endArrow=none;html=1;rounded=0;" parent="1" edge="1">
          <mxGeometry width="50" height="50" relative="1" as="geometry">
            <mxPoint x="1032" y="5355" as="sourcePoint" />
            <mxPoint x="1112" y="5355" as="targetPoint" />
          </mxGeometry>
        </mxCell>
        <mxCell id="Q05lDvQQ7-CmcgwzlYSV-419" value="" style="endArrow=none;html=1;rounded=0;" parent="1" edge="1">
          <mxGeometry width="50" height="50" relative="1" as="geometry">
            <mxPoint x="1112" y="5355" as="sourcePoint" />
            <mxPoint x="1212" y="5355" as="targetPoint" />
          </mxGeometry>
        </mxCell>
        <mxCell id="Q05lDvQQ7-CmcgwzlYSV-420" value="" style="endArrow=none;html=1;rounded=0;entryX=0.5;entryY=0;entryDx=0;entryDy=0;" parent="1" target="Q05lDvQQ7-CmcgwzlYSV-416" edge="1">
          <mxGeometry width="50" height="50" relative="1" as="geometry">
            <mxPoint x="1212" y="5355" as="sourcePoint" />
            <mxPoint x="1262" y="5305" as="targetPoint" />
          </mxGeometry>
        </mxCell>
        <mxCell id="Q05lDvQQ7-CmcgwzlYSV-421" value="" style="endArrow=none;html=1;rounded=0;entryX=0.5;entryY=0;entryDx=0;entryDy=0;" parent="1" edge="1">
          <mxGeometry width="50" height="50" relative="1" as="geometry">
            <mxPoint x="1031.17" y="5355" as="sourcePoint" />
            <mxPoint x="1031.17" y="5415" as="targetPoint" />
          </mxGeometry>
        </mxCell>
        <mxCell id="Q05lDvQQ7-CmcgwzlYSV-422" value="Free MembershiP Card" style="rounded=0;whiteSpace=wrap;html=1;" parent="1" vertex="1">
          <mxGeometry x="252" y="5420" width="120" height="60" as="geometry" />
        </mxCell>
        <mxCell id="Q05lDvQQ7-CmcgwzlYSV-423" value="" style="endArrow=none;html=1;rounded=0;" parent="1" edge="1">
          <mxGeometry width="50" height="50" relative="1" as="geometry">
            <mxPoint x="392" y="5340" as="sourcePoint" />
            <mxPoint x="392" y="5290" as="targetPoint" />
          </mxGeometry>
        </mxCell>
        <mxCell id="Q05lDvQQ7-CmcgwzlYSV-424" value="" style="endArrow=none;html=1;rounded=0;" parent="1" edge="1">
          <mxGeometry width="50" height="50" relative="1" as="geometry">
            <mxPoint x="462" y="5420" as="sourcePoint" />
            <mxPoint x="462" y="5340" as="targetPoint" />
          </mxGeometry>
        </mxCell>
        <mxCell id="Q05lDvQQ7-CmcgwzlYSV-425" value="Upgrade Buton" style="rounded=0;whiteSpace=wrap;html=1;" parent="1" vertex="1">
          <mxGeometry x="682" y="5245" width="120" height="60" as="geometry" />
        </mxCell>
        <mxCell id="Q05lDvQQ7-CmcgwzlYSV-426" value="&quot;Upgrade To Prewmium&quot;" style="rounded=0;whiteSpace=wrap;html=1;" parent="1" vertex="1">
          <mxGeometry x="612" y="5410" width="120" height="60" as="geometry" />
        </mxCell>
        <mxCell id="Q05lDvQQ7-CmcgwzlYSV-427" value="Payment Form Integretion" style="rounded=0;whiteSpace=wrap;html=1;" parent="1" vertex="1">
          <mxGeometry x="782" y="5410" width="120" height="60" as="geometry" />
        </mxCell>
        <mxCell id="Q05lDvQQ7-CmcgwzlYSV-428" value="" style="endArrow=none;html=1;rounded=0;" parent="1" edge="1">
          <mxGeometry width="50" height="50" relative="1" as="geometry">
            <mxPoint x="740.75" y="5355" as="sourcePoint" />
            <mxPoint x="740.75" y="5305" as="targetPoint" />
          </mxGeometry>
        </mxCell>
        <mxCell id="Q05lDvQQ7-CmcgwzlYSV-429" value="" style="endArrow=none;html=1;rounded=0;" parent="1" edge="1">
          <mxGeometry width="50" height="50" relative="1" as="geometry">
            <mxPoint x="662" y="5355" as="sourcePoint" />
            <mxPoint x="742" y="5355" as="targetPoint" />
          </mxGeometry>
        </mxCell>
        <mxCell id="Q05lDvQQ7-CmcgwzlYSV-430" value="" style="endArrow=none;html=1;rounded=0;" parent="1" edge="1">
          <mxGeometry width="50" height="50" relative="1" as="geometry">
            <mxPoint x="742" y="5355" as="sourcePoint" />
            <mxPoint x="842" y="5355" as="targetPoint" />
          </mxGeometry>
        </mxCell>
        <mxCell id="Q05lDvQQ7-CmcgwzlYSV-431" value="" style="endArrow=none;html=1;rounded=0;entryX=0.5;entryY=0;entryDx=0;entryDy=0;" parent="1" edge="1">
          <mxGeometry width="50" height="50" relative="1" as="geometry">
            <mxPoint x="662.0000000000001" y="5350" as="sourcePoint" />
            <mxPoint x="662.0000000000001" y="5410" as="targetPoint" />
          </mxGeometry>
        </mxCell>
        <mxCell id="Q05lDvQQ7-CmcgwzlYSV-432" value="" style="endArrow=none;html=1;rounded=0;entryX=0.5;entryY=0;entryDx=0;entryDy=0;" parent="1" edge="1">
          <mxGeometry width="50" height="50" relative="1" as="geometry">
            <mxPoint x="842" y="5350" as="sourcePoint" />
            <mxPoint x="842" y="5410" as="targetPoint" />
          </mxGeometry>
        </mxCell>
        <mxCell id="Q05lDvQQ7-CmcgwzlYSV-433" value="" style="endArrow=none;html=1;rounded=0;exitX=0.5;exitY=0;exitDx=0;exitDy=0;" parent="1" source="Q05lDvQQ7-CmcgwzlYSV-425" edge="1">
          <mxGeometry width="50" height="50" relative="1" as="geometry">
            <mxPoint x="692" y="5250" as="sourcePoint" />
            <mxPoint x="742" y="5200" as="targetPoint" />
          </mxGeometry>
        </mxCell>
        <mxCell id="Q05lDvQQ7-CmcgwzlYSV-434" value="" style="endArrow=none;html=1;rounded=0;" parent="1" edge="1">
          <mxGeometry width="50" height="50" relative="1" as="geometry">
            <mxPoint x="398" y="5070" as="sourcePoint" />
            <mxPoint x="398" y="5030" as="targetPoint" />
          </mxGeometry>
        </mxCell>
        <mxCell id="Q05lDvQQ7-CmcgwzlYSV-435" value="" style="endArrow=none;html=1;rounded=0;" parent="1" edge="1">
          <mxGeometry width="50" height="50" relative="1" as="geometry">
            <mxPoint x="168" y="5070" as="sourcePoint" />
            <mxPoint x="398" y="5070" as="targetPoint" />
          </mxGeometry>
        </mxCell>
        <mxCell id="Q05lDvQQ7-CmcgwzlYSV-436" value="" style="endArrow=none;html=1;rounded=0;" parent="1" edge="1">
          <mxGeometry width="50" height="50" relative="1" as="geometry">
            <mxPoint x="478" y="5070" as="sourcePoint" />
            <mxPoint x="398" y="5070" as="targetPoint" />
          </mxGeometry>
        </mxCell>
        <mxCell id="Q05lDvQQ7-CmcgwzlYSV-437" value="Content" style="rounded=0;whiteSpace=wrap;html=1;" parent="1" vertex="1">
          <mxGeometry x="48" y="5050" width="120" height="60" as="geometry" />
        </mxCell>
        <mxCell id="Q05lDvQQ7-CmcgwzlYSV-438" value="" style="endArrow=none;html=1;rounded=0;" parent="1" edge="1">
          <mxGeometry width="50" height="50" relative="1" as="geometry">
            <mxPoint x="108" y="5160" as="sourcePoint" />
            <mxPoint x="108" y="5110" as="targetPoint" />
          </mxGeometry>
        </mxCell>
        <mxCell id="Q05lDvQQ7-CmcgwzlYSV-439" value="Membership Information" style="rounded=0;whiteSpace=wrap;html=1;" parent="1" vertex="1">
          <mxGeometry x="48" y="5150" width="120" height="60" as="geometry" />
        </mxCell>
        <mxCell id="Q05lDvQQ7-CmcgwzlYSV-478" value="GUI Features" style="rounded=0;whiteSpace=wrap;html=1;" parent="1" vertex="1">
          <mxGeometry x="464" y="6100" width="120" height="60" as="geometry" />
        </mxCell>
        <mxCell id="Q05lDvQQ7-CmcgwzlYSV-479" value="Screen Reader Toggle" style="rounded=0;whiteSpace=wrap;html=1;" parent="1" vertex="1">
          <mxGeometry x="384" y="6230" width="120" height="60" as="geometry" />
        </mxCell>
        <mxCell id="Q05lDvQQ7-CmcgwzlYSV-480" value="" style="endArrow=none;html=1;rounded=0;" parent="1" edge="1">
          <mxGeometry width="50" height="50" relative="1" as="geometry">
            <mxPoint x="524" y="6195" as="sourcePoint" />
            <mxPoint x="524" y="6195" as="targetPoint" />
          </mxGeometry>
        </mxCell>
        <mxCell id="Q05lDvQQ7-CmcgwzlYSV-481" value="" style="endArrow=none;html=1;rounded=0;exitX=0.5;exitY=0;exitDx=0;exitDy=0;" parent="1" source="Q05lDvQQ7-CmcgwzlYSV-479" edge="1">
          <mxGeometry width="50" height="50" relative="1" as="geometry">
            <mxPoint x="444" y="6225" as="sourcePoint" />
            <mxPoint x="444" y="6200" as="targetPoint" />
          </mxGeometry>
        </mxCell>
        <mxCell id="Q05lDvQQ7-CmcgwzlYSV-485" value="Accessibility Page" style="rounded=0;whiteSpace=wrap;html=1;" parent="1" vertex="1">
          <mxGeometry x="390" y="5970" width="120" height="60" as="geometry" />
        </mxCell>
        <mxCell id="Q05lDvQQ7-CmcgwzlYSV-486" value="" style="endArrow=none;html=1;rounded=0;exitX=0.5;exitY=0;exitDx=0;exitDy=0;" parent="1" source="Q05lDvQQ7-CmcgwzlYSV-478" edge="1">
          <mxGeometry width="50" height="50" relative="1" as="geometry">
            <mxPoint x="460" y="6130" as="sourcePoint" />
            <mxPoint x="524" y="6070" as="targetPoint" />
          </mxGeometry>
        </mxCell>
        <mxCell id="Q05lDvQQ7-CmcgwzlYSV-487" value="" style="endArrow=none;html=1;rounded=0;" parent="1" edge="1">
          <mxGeometry width="50" height="50" relative="1" as="geometry">
            <mxPoint x="444" y="6200" as="sourcePoint" />
            <mxPoint x="1159" y="6200" as="targetPoint" />
          </mxGeometry>
        </mxCell>
        <mxCell id="Q05lDvQQ7-CmcgwzlYSV-488" value="" style="endArrow=none;html=1;rounded=0;exitX=0.5;exitY=0;exitDx=0;exitDy=0;" parent="1" edge="1">
          <mxGeometry width="50" height="50" relative="1" as="geometry">
            <mxPoint x="1159" y="6245" as="sourcePoint" />
            <mxPoint x="1159" y="6200" as="targetPoint" />
          </mxGeometry>
        </mxCell>
        <mxCell id="Q05lDvQQ7-CmcgwzlYSV-489" value="" style="endArrow=none;html=1;rounded=0;" parent="1" edge="1">
          <mxGeometry width="50" height="50" relative="1" as="geometry">
            <mxPoint x="524" y="6200" as="sourcePoint" />
            <mxPoint x="524" y="6160" as="targetPoint" />
          </mxGeometry>
        </mxCell>
        <mxCell id="Q05lDvQQ7-CmcgwzlYSV-490" value="Back-End" style="rounded=0;whiteSpace=wrap;html=1;" parent="1" vertex="1">
          <mxGeometry x="1099" y="6245" width="120" height="60" as="geometry" />
        </mxCell>
        <mxCell id="Q05lDvQQ7-CmcgwzlYSV-491" value="Database: Stores user accessibility preferences&amp;nbsp;" style="rounded=0;whiteSpace=wrap;html=1;" parent="1" vertex="1">
          <mxGeometry x="1019" y="6415" width="120" height="60" as="geometry" />
        </mxCell>
        <mxCell id="Q05lDvQQ7-CmcgwzlYSV-492" value="API:(Applies accessibility settings dynamically)" style="rounded=0;whiteSpace=wrap;html=1;" parent="1" vertex="1">
          <mxGeometry x="1199" y="6415" width="120" height="60" as="geometry" />
        </mxCell>
        <mxCell id="Q05lDvQQ7-CmcgwzlYSV-493" value="" style="endArrow=none;html=1;rounded=0;" parent="1" edge="1">
          <mxGeometry width="50" height="50" relative="1" as="geometry">
            <mxPoint x="1159" y="6355" as="sourcePoint" />
            <mxPoint x="1159" y="6305" as="targetPoint" />
          </mxGeometry>
        </mxCell>
        <mxCell id="Q05lDvQQ7-CmcgwzlYSV-494" value="" style="endArrow=none;html=1;rounded=0;" parent="1" edge="1">
          <mxGeometry width="50" height="50" relative="1" as="geometry">
            <mxPoint x="1079" y="6355" as="sourcePoint" />
            <mxPoint x="1159" y="6355" as="targetPoint" />
          </mxGeometry>
        </mxCell>
        <mxCell id="Q05lDvQQ7-CmcgwzlYSV-495" value="" style="endArrow=none;html=1;rounded=0;" parent="1" edge="1">
          <mxGeometry width="50" height="50" relative="1" as="geometry">
            <mxPoint x="1159" y="6355" as="sourcePoint" />
            <mxPoint x="1259" y="6355" as="targetPoint" />
          </mxGeometry>
        </mxCell>
        <mxCell id="Q05lDvQQ7-CmcgwzlYSV-496" value="" style="endArrow=none;html=1;rounded=0;entryX=0.5;entryY=0;entryDx=0;entryDy=0;" parent="1" target="Q05lDvQQ7-CmcgwzlYSV-492" edge="1">
          <mxGeometry width="50" height="50" relative="1" as="geometry">
            <mxPoint x="1259" y="6355" as="sourcePoint" />
            <mxPoint x="1309" y="6305" as="targetPoint" />
          </mxGeometry>
        </mxCell>
        <mxCell id="Q05lDvQQ7-CmcgwzlYSV-497" value="" style="endArrow=none;html=1;rounded=0;entryX=0.5;entryY=0;entryDx=0;entryDy=0;" parent="1" edge="1">
          <mxGeometry width="50" height="50" relative="1" as="geometry">
            <mxPoint x="1078.17" y="6355" as="sourcePoint" />
            <mxPoint x="1078.17" y="6415" as="targetPoint" />
          </mxGeometry>
        </mxCell>
        <mxCell id="Q05lDvQQ7-CmcgwzlYSV-501" value="High-Contrast-Mode Switch" style="rounded=0;whiteSpace=wrap;html=1;" parent="1" vertex="1">
          <mxGeometry x="729" y="6245" width="120" height="60" as="geometry" />
        </mxCell>
        <mxCell id="Q05lDvQQ7-CmcgwzlYSV-509" value="" style="endArrow=none;html=1;rounded=0;exitX=0.5;exitY=0;exitDx=0;exitDy=0;" parent="1" source="Q05lDvQQ7-CmcgwzlYSV-501" edge="1">
          <mxGeometry width="50" height="50" relative="1" as="geometry">
            <mxPoint x="739" y="6250" as="sourcePoint" />
            <mxPoint x="789" y="6200" as="targetPoint" />
          </mxGeometry>
        </mxCell>
        <mxCell id="Q05lDvQQ7-CmcgwzlYSV-510" value="" style="endArrow=none;html=1;rounded=0;" parent="1" edge="1">
          <mxGeometry width="50" height="50" relative="1" as="geometry">
            <mxPoint x="445" y="6070" as="sourcePoint" />
            <mxPoint x="445" y="6030" as="targetPoint" />
          </mxGeometry>
        </mxCell>
        <mxCell id="Q05lDvQQ7-CmcgwzlYSV-511" value="" style="endArrow=none;html=1;rounded=0;" parent="1" edge="1">
          <mxGeometry width="50" height="50" relative="1" as="geometry">
            <mxPoint x="215" y="6070" as="sourcePoint" />
            <mxPoint x="445" y="6070" as="targetPoint" />
          </mxGeometry>
        </mxCell>
        <mxCell id="Q05lDvQQ7-CmcgwzlYSV-512" value="" style="endArrow=none;html=1;rounded=0;" parent="1" edge="1">
          <mxGeometry width="50" height="50" relative="1" as="geometry">
            <mxPoint x="525" y="6070" as="sourcePoint" />
            <mxPoint x="445" y="6070" as="targetPoint" />
          </mxGeometry>
        </mxCell>
        <mxCell id="Q05lDvQQ7-CmcgwzlYSV-513" value="Content" style="rounded=0;whiteSpace=wrap;html=1;" parent="1" vertex="1">
          <mxGeometry x="95" y="6050" width="120" height="60" as="geometry" />
        </mxCell>
        <mxCell id="Q05lDvQQ7-CmcgwzlYSV-514" value="" style="endArrow=none;html=1;rounded=0;" parent="1" edge="1">
          <mxGeometry width="50" height="50" relative="1" as="geometry">
            <mxPoint x="155" y="6160" as="sourcePoint" />
            <mxPoint x="155" y="6110" as="targetPoint" />
          </mxGeometry>
        </mxCell>
        <mxCell id="Q05lDvQQ7-CmcgwzlYSV-515" value="Accessibility Information&amp;nbsp;" style="rounded=0;whiteSpace=wrap;html=1;" parent="1" vertex="1">
          <mxGeometry x="95" y="6150" width="120" height="60" as="geometry" />
        </mxCell>
        <mxCell id="Q05lDvQQ7-CmcgwzlYSV-516" value="GUI Features" style="rounded=0;whiteSpace=wrap;html=1;" parent="1" vertex="1">
          <mxGeometry x="479" y="7050" width="120" height="60" as="geometry" />
        </mxCell>
        <mxCell id="Q05lDvQQ7-CmcgwzlYSV-517" value="Company Overview Section&amp;nbsp;" style="rounded=0;whiteSpace=wrap;html=1;" parent="1" vertex="1">
          <mxGeometry x="399" y="7180" width="120" height="60" as="geometry" />
        </mxCell>
        <mxCell id="Q05lDvQQ7-CmcgwzlYSV-518" value="" style="endArrow=none;html=1;rounded=0;" parent="1" edge="1">
          <mxGeometry width="50" height="50" relative="1" as="geometry">
            <mxPoint x="539" y="7145" as="sourcePoint" />
            <mxPoint x="539" y="7145" as="targetPoint" />
          </mxGeometry>
        </mxCell>
        <mxCell id="Q05lDvQQ7-CmcgwzlYSV-519" value="" style="endArrow=none;html=1;rounded=0;exitX=0.5;exitY=0;exitDx=0;exitDy=0;" parent="1" source="Q05lDvQQ7-CmcgwzlYSV-517" edge="1">
          <mxGeometry width="50" height="50" relative="1" as="geometry">
            <mxPoint x="459" y="7175" as="sourcePoint" />
            <mxPoint x="459" y="7150" as="targetPoint" />
          </mxGeometry>
        </mxCell>
        <mxCell id="Q05lDvQQ7-CmcgwzlYSV-520" value="Core Values" style="rounded=0;whiteSpace=wrap;html=1;" parent="1" vertex="1">
          <mxGeometry x="464" y="7370" width="120" height="60" as="geometry" />
        </mxCell>
        <mxCell id="Q05lDvQQ7-CmcgwzlYSV-521" value="" style="endArrow=none;html=1;rounded=0;" parent="1" edge="1">
          <mxGeometry width="50" height="50" relative="1" as="geometry">
            <mxPoint x="374" y="7290" as="sourcePoint" />
            <mxPoint x="524" y="7290" as="targetPoint" />
          </mxGeometry>
        </mxCell>
        <mxCell id="Q05lDvQQ7-CmcgwzlYSV-522" value="" style="endArrow=none;html=1;rounded=0;exitX=0.5;exitY=0;exitDx=0;exitDy=0;" parent="1" source="Q05lDvQQ7-CmcgwzlYSV-536" edge="1">
          <mxGeometry width="50" height="50" relative="1" as="geometry">
            <mxPoint x="374" y="7330" as="sourcePoint" />
            <mxPoint x="374" y="7290" as="targetPoint" />
          </mxGeometry>
        </mxCell>
        <mxCell id="Q05lDvQQ7-CmcgwzlYSV-523" value="About Us Page" style="rounded=0;whiteSpace=wrap;html=1;" parent="1" vertex="1">
          <mxGeometry x="405" y="6920" width="120" height="60" as="geometry" />
        </mxCell>
        <mxCell id="Q05lDvQQ7-CmcgwzlYSV-524" value="" style="endArrow=none;html=1;rounded=0;exitX=0.5;exitY=0;exitDx=0;exitDy=0;" parent="1" source="Q05lDvQQ7-CmcgwzlYSV-516" edge="1">
          <mxGeometry width="50" height="50" relative="1" as="geometry">
            <mxPoint x="475" y="7080" as="sourcePoint" />
            <mxPoint x="539" y="7020" as="targetPoint" />
          </mxGeometry>
        </mxCell>
        <mxCell id="Q05lDvQQ7-CmcgwzlYSV-525" value="" style="endArrow=none;html=1;rounded=0;" parent="1" edge="1">
          <mxGeometry width="50" height="50" relative="1" as="geometry">
            <mxPoint x="459" y="7150" as="sourcePoint" />
            <mxPoint x="1174" y="7150" as="targetPoint" />
          </mxGeometry>
        </mxCell>
        <mxCell id="Q05lDvQQ7-CmcgwzlYSV-526" value="" style="endArrow=none;html=1;rounded=0;exitX=0.5;exitY=0;exitDx=0;exitDy=0;" parent="1" edge="1">
          <mxGeometry width="50" height="50" relative="1" as="geometry">
            <mxPoint x="1174" y="7195" as="sourcePoint" />
            <mxPoint x="1174" y="7150" as="targetPoint" />
          </mxGeometry>
        </mxCell>
        <mxCell id="Q05lDvQQ7-CmcgwzlYSV-527" value="" style="endArrow=none;html=1;rounded=0;" parent="1" edge="1">
          <mxGeometry width="50" height="50" relative="1" as="geometry">
            <mxPoint x="539" y="7150" as="sourcePoint" />
            <mxPoint x="539" y="7110" as="targetPoint" />
          </mxGeometry>
        </mxCell>
        <mxCell id="Q05lDvQQ7-CmcgwzlYSV-528" value="Back-End" style="rounded=0;whiteSpace=wrap;html=1;" parent="1" vertex="1">
          <mxGeometry x="1114" y="7195" width="120" height="60" as="geometry" />
        </mxCell>
        <mxCell id="Q05lDvQQ7-CmcgwzlYSV-529" value="Database: Stores team member and company information" style="rounded=0;whiteSpace=wrap;html=1;" parent="1" vertex="1">
          <mxGeometry x="1034" y="7365" width="120" height="60" as="geometry" />
        </mxCell>
        <mxCell id="Q05lDvQQ7-CmcgwzlYSV-530" value="API:(Fetches and displays about us content" style="rounded=0;whiteSpace=wrap;html=1;" parent="1" vertex="1">
          <mxGeometry x="1214" y="7365" width="120" height="60" as="geometry" />
        </mxCell>
        <mxCell id="Q05lDvQQ7-CmcgwzlYSV-531" value="" style="endArrow=none;html=1;rounded=0;" parent="1" edge="1">
          <mxGeometry width="50" height="50" relative="1" as="geometry">
            <mxPoint x="1174" y="7305" as="sourcePoint" />
            <mxPoint x="1174" y="7255" as="targetPoint" />
          </mxGeometry>
        </mxCell>
        <mxCell id="Q05lDvQQ7-CmcgwzlYSV-532" value="" style="endArrow=none;html=1;rounded=0;" parent="1" edge="1">
          <mxGeometry width="50" height="50" relative="1" as="geometry">
            <mxPoint x="1094" y="7305" as="sourcePoint" />
            <mxPoint x="1174" y="7305" as="targetPoint" />
          </mxGeometry>
        </mxCell>
        <mxCell id="Q05lDvQQ7-CmcgwzlYSV-533" value="" style="endArrow=none;html=1;rounded=0;" parent="1" edge="1">
          <mxGeometry width="50" height="50" relative="1" as="geometry">
            <mxPoint x="1174" y="7305" as="sourcePoint" />
            <mxPoint x="1274" y="7305" as="targetPoint" />
          </mxGeometry>
        </mxCell>
        <mxCell id="Q05lDvQQ7-CmcgwzlYSV-534" value="" style="endArrow=none;html=1;rounded=0;entryX=0.5;entryY=0;entryDx=0;entryDy=0;" parent="1" target="Q05lDvQQ7-CmcgwzlYSV-530" edge="1">
          <mxGeometry width="50" height="50" relative="1" as="geometry">
            <mxPoint x="1274" y="7305" as="sourcePoint" />
            <mxPoint x="1324" y="7255" as="targetPoint" />
          </mxGeometry>
        </mxCell>
        <mxCell id="Q05lDvQQ7-CmcgwzlYSV-535" value="" style="endArrow=none;html=1;rounded=0;entryX=0.5;entryY=0;entryDx=0;entryDy=0;" parent="1" edge="1">
          <mxGeometry width="50" height="50" relative="1" as="geometry">
            <mxPoint x="1093.17" y="7305" as="sourcePoint" />
            <mxPoint x="1093.17" y="7365" as="targetPoint" />
          </mxGeometry>
        </mxCell>
        <mxCell id="Q05lDvQQ7-CmcgwzlYSV-536" value="Mission Statement" style="rounded=0;whiteSpace=wrap;html=1;" parent="1" vertex="1">
          <mxGeometry x="314" y="7370" width="120" height="60" as="geometry" />
        </mxCell>
        <mxCell id="Q05lDvQQ7-CmcgwzlYSV-537" value="" style="endArrow=none;html=1;rounded=0;" parent="1" edge="1">
          <mxGeometry width="50" height="50" relative="1" as="geometry">
            <mxPoint x="454" y="7290" as="sourcePoint" />
            <mxPoint x="454" y="7240" as="targetPoint" />
          </mxGeometry>
        </mxCell>
        <mxCell id="Q05lDvQQ7-CmcgwzlYSV-538" value="" style="endArrow=none;html=1;rounded=0;" parent="1" edge="1">
          <mxGeometry width="50" height="50" relative="1" as="geometry">
            <mxPoint x="524" y="7370" as="sourcePoint" />
            <mxPoint x="524" y="7290" as="targetPoint" />
          </mxGeometry>
        </mxCell>
        <mxCell id="Q05lDvQQ7-CmcgwzlYSV-539" value="Team Member Profiles" style="rounded=0;whiteSpace=wrap;html=1;" parent="1" vertex="1">
          <mxGeometry x="744" y="7195" width="120" height="60" as="geometry" />
        </mxCell>
        <mxCell id="Q05lDvQQ7-CmcgwzlYSV-540" value="Photos And Bios" style="rounded=0;whiteSpace=wrap;html=1;" parent="1" vertex="1">
          <mxGeometry x="674" y="7360" width="120" height="60" as="geometry" />
        </mxCell>
        <mxCell id="Q05lDvQQ7-CmcgwzlYSV-541" value="Social Media Links" style="rounded=0;whiteSpace=wrap;html=1;" parent="1" vertex="1">
          <mxGeometry x="844" y="7360" width="120" height="60" as="geometry" />
        </mxCell>
        <mxCell id="Q05lDvQQ7-CmcgwzlYSV-542" value="" style="endArrow=none;html=1;rounded=0;" parent="1" edge="1">
          <mxGeometry width="50" height="50" relative="1" as="geometry">
            <mxPoint x="802.75" y="7305" as="sourcePoint" />
            <mxPoint x="802.75" y="7255" as="targetPoint" />
          </mxGeometry>
        </mxCell>
        <mxCell id="Q05lDvQQ7-CmcgwzlYSV-543" value="" style="endArrow=none;html=1;rounded=0;" parent="1" edge="1">
          <mxGeometry width="50" height="50" relative="1" as="geometry">
            <mxPoint x="724" y="7305" as="sourcePoint" />
            <mxPoint x="804" y="7305" as="targetPoint" />
          </mxGeometry>
        </mxCell>
        <mxCell id="Q05lDvQQ7-CmcgwzlYSV-544" value="" style="endArrow=none;html=1;rounded=0;" parent="1" edge="1">
          <mxGeometry width="50" height="50" relative="1" as="geometry">
            <mxPoint x="804" y="7305" as="sourcePoint" />
            <mxPoint x="904" y="7305" as="targetPoint" />
          </mxGeometry>
        </mxCell>
        <mxCell id="Q05lDvQQ7-CmcgwzlYSV-545" value="" style="endArrow=none;html=1;rounded=0;entryX=0.5;entryY=0;entryDx=0;entryDy=0;" parent="1" edge="1">
          <mxGeometry width="50" height="50" relative="1" as="geometry">
            <mxPoint x="724.0000000000001" y="7300" as="sourcePoint" />
            <mxPoint x="724.0000000000001" y="7360" as="targetPoint" />
          </mxGeometry>
        </mxCell>
        <mxCell id="Q05lDvQQ7-CmcgwzlYSV-546" value="" style="endArrow=none;html=1;rounded=0;entryX=0.5;entryY=0;entryDx=0;entryDy=0;" parent="1" edge="1">
          <mxGeometry width="50" height="50" relative="1" as="geometry">
            <mxPoint x="904" y="7300" as="sourcePoint" />
            <mxPoint x="904" y="7360" as="targetPoint" />
          </mxGeometry>
        </mxCell>
        <mxCell id="Q05lDvQQ7-CmcgwzlYSV-547" value="" style="endArrow=none;html=1;rounded=0;exitX=0.5;exitY=0;exitDx=0;exitDy=0;" parent="1" source="Q05lDvQQ7-CmcgwzlYSV-539" edge="1">
          <mxGeometry width="50" height="50" relative="1" as="geometry">
            <mxPoint x="754" y="7200" as="sourcePoint" />
            <mxPoint x="804" y="7150" as="targetPoint" />
          </mxGeometry>
        </mxCell>
        <mxCell id="Q05lDvQQ7-CmcgwzlYSV-548" value="" style="endArrow=none;html=1;rounded=0;" parent="1" edge="1">
          <mxGeometry width="50" height="50" relative="1" as="geometry">
            <mxPoint x="460" y="7020" as="sourcePoint" />
            <mxPoint x="460" y="6980" as="targetPoint" />
          </mxGeometry>
        </mxCell>
        <mxCell id="Q05lDvQQ7-CmcgwzlYSV-549" value="" style="endArrow=none;html=1;rounded=0;" parent="1" edge="1">
          <mxGeometry width="50" height="50" relative="1" as="geometry">
            <mxPoint x="230" y="7020" as="sourcePoint" />
            <mxPoint x="460" y="7020" as="targetPoint" />
          </mxGeometry>
        </mxCell>
        <mxCell id="Q05lDvQQ7-CmcgwzlYSV-550" value="" style="endArrow=none;html=1;rounded=0;" parent="1" edge="1">
          <mxGeometry width="50" height="50" relative="1" as="geometry">
            <mxPoint x="540" y="7020" as="sourcePoint" />
            <mxPoint x="460" y="7020" as="targetPoint" />
          </mxGeometry>
        </mxCell>
        <mxCell id="Q05lDvQQ7-CmcgwzlYSV-551" value="Content" style="rounded=0;whiteSpace=wrap;html=1;" parent="1" vertex="1">
          <mxGeometry x="110" y="7000" width="120" height="60" as="geometry" />
        </mxCell>
        <mxCell id="Q05lDvQQ7-CmcgwzlYSV-552" value="" style="endArrow=none;html=1;rounded=0;" parent="1" edge="1">
          <mxGeometry width="50" height="50" relative="1" as="geometry">
            <mxPoint x="170" y="7110" as="sourcePoint" />
            <mxPoint x="170" y="7060" as="targetPoint" />
          </mxGeometry>
        </mxCell>
        <mxCell id="Q05lDvQQ7-CmcgwzlYSV-553" value="About Us Information" style="rounded=0;whiteSpace=wrap;html=1;" parent="1" vertex="1">
          <mxGeometry x="110" y="7100" width="120" height="60" as="geometry" />
        </mxCell>
        <mxCell id="Q05lDvQQ7-CmcgwzlYSV-554" value="GUI Features" style="rounded=0;whiteSpace=wrap;html=1;" parent="1" vertex="1">
          <mxGeometry x="469" y="8060" width="120" height="60" as="geometry" />
        </mxCell>
        <mxCell id="Q05lDvQQ7-CmcgwzlYSV-555" value="Blog Post Grid" style="rounded=0;whiteSpace=wrap;html=1;" parent="1" vertex="1">
          <mxGeometry x="389" y="8190" width="120" height="60" as="geometry" />
        </mxCell>
        <mxCell id="Q05lDvQQ7-CmcgwzlYSV-556" value="" style="endArrow=none;html=1;rounded=0;" parent="1" edge="1">
          <mxGeometry width="50" height="50" relative="1" as="geometry">
            <mxPoint x="529" y="8155" as="sourcePoint" />
            <mxPoint x="529" y="8155" as="targetPoint" />
          </mxGeometry>
        </mxCell>
        <mxCell id="Q05lDvQQ7-CmcgwzlYSV-557" value="" style="endArrow=none;html=1;rounded=0;exitX=0.5;exitY=0;exitDx=0;exitDy=0;" parent="1" source="Q05lDvQQ7-CmcgwzlYSV-555" edge="1">
          <mxGeometry width="50" height="50" relative="1" as="geometry">
            <mxPoint x="449" y="8185" as="sourcePoint" />
            <mxPoint x="449" y="8160" as="targetPoint" />
          </mxGeometry>
        </mxCell>
        <mxCell id="Q05lDvQQ7-CmcgwzlYSV-558" value="Category Filters" style="rounded=0;whiteSpace=wrap;html=1;" parent="1" vertex="1">
          <mxGeometry x="454" y="8380" width="120" height="60" as="geometry" />
        </mxCell>
        <mxCell id="Q05lDvQQ7-CmcgwzlYSV-559" value="" style="endArrow=none;html=1;rounded=0;" parent="1" edge="1">
          <mxGeometry width="50" height="50" relative="1" as="geometry">
            <mxPoint x="364" y="8300" as="sourcePoint" />
            <mxPoint x="514" y="8300" as="targetPoint" />
          </mxGeometry>
        </mxCell>
        <mxCell id="Q05lDvQQ7-CmcgwzlYSV-560" value="" style="endArrow=none;html=1;rounded=0;exitX=0.5;exitY=0;exitDx=0;exitDy=0;" parent="1" source="Q05lDvQQ7-CmcgwzlYSV-574" edge="1">
          <mxGeometry width="50" height="50" relative="1" as="geometry">
            <mxPoint x="364" y="8340" as="sourcePoint" />
            <mxPoint x="364" y="8300" as="targetPoint" />
          </mxGeometry>
        </mxCell>
        <mxCell id="Q05lDvQQ7-CmcgwzlYSV-561" value="Blog Page" style="rounded=0;whiteSpace=wrap;html=1;" parent="1" vertex="1">
          <mxGeometry x="395" y="7930" width="120" height="60" as="geometry" />
        </mxCell>
        <mxCell id="Q05lDvQQ7-CmcgwzlYSV-562" value="" style="endArrow=none;html=1;rounded=0;exitX=0.5;exitY=0;exitDx=0;exitDy=0;" parent="1" source="Q05lDvQQ7-CmcgwzlYSV-554" edge="1">
          <mxGeometry width="50" height="50" relative="1" as="geometry">
            <mxPoint x="465" y="8090" as="sourcePoint" />
            <mxPoint x="529" y="8030" as="targetPoint" />
          </mxGeometry>
        </mxCell>
        <mxCell id="Q05lDvQQ7-CmcgwzlYSV-563" value="" style="endArrow=none;html=1;rounded=0;" parent="1" edge="1">
          <mxGeometry width="50" height="50" relative="1" as="geometry">
            <mxPoint x="449" y="8160" as="sourcePoint" />
            <mxPoint x="1164" y="8160" as="targetPoint" />
          </mxGeometry>
        </mxCell>
        <mxCell id="Q05lDvQQ7-CmcgwzlYSV-564" value="" style="endArrow=none;html=1;rounded=0;exitX=0.5;exitY=0;exitDx=0;exitDy=0;" parent="1" edge="1">
          <mxGeometry width="50" height="50" relative="1" as="geometry">
            <mxPoint x="1164" y="8205" as="sourcePoint" />
            <mxPoint x="1164" y="8160" as="targetPoint" />
          </mxGeometry>
        </mxCell>
        <mxCell id="Q05lDvQQ7-CmcgwzlYSV-565" value="" style="endArrow=none;html=1;rounded=0;" parent="1" edge="1">
          <mxGeometry width="50" height="50" relative="1" as="geometry">
            <mxPoint x="529" y="8160" as="sourcePoint" />
            <mxPoint x="529" y="8120" as="targetPoint" />
          </mxGeometry>
        </mxCell>
        <mxCell id="Q05lDvQQ7-CmcgwzlYSV-566" value="Back-End" style="rounded=0;whiteSpace=wrap;html=1;" parent="1" vertex="1">
          <mxGeometry x="1104" y="8205" width="120" height="60" as="geometry" />
        </mxCell>
        <mxCell id="Q05lDvQQ7-CmcgwzlYSV-567" value="Database: Stores blog posts and comments" style="rounded=0;whiteSpace=wrap;html=1;" parent="1" vertex="1">
          <mxGeometry x="1024" y="8375" width="120" height="60" as="geometry" />
        </mxCell>
        <mxCell id="Q05lDvQQ7-CmcgwzlYSV-568" value="API:(Fetches and displays blog content" style="rounded=0;whiteSpace=wrap;html=1;" parent="1" vertex="1">
          <mxGeometry x="1204" y="8375" width="120" height="60" as="geometry" />
        </mxCell>
        <mxCell id="Q05lDvQQ7-CmcgwzlYSV-569" value="" style="endArrow=none;html=1;rounded=0;" parent="1" edge="1">
          <mxGeometry width="50" height="50" relative="1" as="geometry">
            <mxPoint x="1164" y="8315" as="sourcePoint" />
            <mxPoint x="1164" y="8265" as="targetPoint" />
          </mxGeometry>
        </mxCell>
        <mxCell id="Q05lDvQQ7-CmcgwzlYSV-570" value="" style="endArrow=none;html=1;rounded=0;" parent="1" edge="1">
          <mxGeometry width="50" height="50" relative="1" as="geometry">
            <mxPoint x="1084" y="8315" as="sourcePoint" />
            <mxPoint x="1164" y="8315" as="targetPoint" />
          </mxGeometry>
        </mxCell>
        <mxCell id="Q05lDvQQ7-CmcgwzlYSV-571" value="" style="endArrow=none;html=1;rounded=0;" parent="1" edge="1">
          <mxGeometry width="50" height="50" relative="1" as="geometry">
            <mxPoint x="1164" y="8315" as="sourcePoint" />
            <mxPoint x="1264" y="8315" as="targetPoint" />
          </mxGeometry>
        </mxCell>
        <mxCell id="Q05lDvQQ7-CmcgwzlYSV-572" value="" style="endArrow=none;html=1;rounded=0;entryX=0.5;entryY=0;entryDx=0;entryDy=0;" parent="1" target="Q05lDvQQ7-CmcgwzlYSV-568" edge="1">
          <mxGeometry width="50" height="50" relative="1" as="geometry">
            <mxPoint x="1264" y="8315" as="sourcePoint" />
            <mxPoint x="1314" y="8265" as="targetPoint" />
          </mxGeometry>
        </mxCell>
        <mxCell id="Q05lDvQQ7-CmcgwzlYSV-573" value="" style="endArrow=none;html=1;rounded=0;entryX=0.5;entryY=0;entryDx=0;entryDy=0;" parent="1" edge="1">
          <mxGeometry width="50" height="50" relative="1" as="geometry">
            <mxPoint x="1083.17" y="8315" as="sourcePoint" />
            <mxPoint x="1083.17" y="8375" as="targetPoint" />
          </mxGeometry>
        </mxCell>
        <mxCell id="Q05lDvQQ7-CmcgwzlYSV-574" value="Featured Posts" style="rounded=0;whiteSpace=wrap;html=1;" parent="1" vertex="1">
          <mxGeometry x="304" y="8380" width="120" height="60" as="geometry" />
        </mxCell>
        <mxCell id="Q05lDvQQ7-CmcgwzlYSV-575" value="" style="endArrow=none;html=1;rounded=0;" parent="1" edge="1">
          <mxGeometry width="50" height="50" relative="1" as="geometry">
            <mxPoint x="444" y="8300" as="sourcePoint" />
            <mxPoint x="444" y="8250" as="targetPoint" />
          </mxGeometry>
        </mxCell>
        <mxCell id="Q05lDvQQ7-CmcgwzlYSV-576" value="" style="endArrow=none;html=1;rounded=0;" parent="1" edge="1">
          <mxGeometry width="50" height="50" relative="1" as="geometry">
            <mxPoint x="514" y="8380" as="sourcePoint" />
            <mxPoint x="514" y="8300" as="targetPoint" />
          </mxGeometry>
        </mxCell>
        <mxCell id="Q05lDvQQ7-CmcgwzlYSV-577" value="Blog Post Details" style="rounded=0;whiteSpace=wrap;html=1;" parent="1" vertex="1">
          <mxGeometry x="734" y="8205" width="120" height="60" as="geometry" />
        </mxCell>
        <mxCell id="Q05lDvQQ7-CmcgwzlYSV-578" value="Title And Author information" style="rounded=0;whiteSpace=wrap;html=1;" parent="1" vertex="1">
          <mxGeometry x="664" y="8370" width="120" height="60" as="geometry" />
        </mxCell>
        <mxCell id="Q05lDvQQ7-CmcgwzlYSV-579" value="Content Body" style="rounded=0;whiteSpace=wrap;html=1;" parent="1" vertex="1">
          <mxGeometry x="834" y="8370" width="120" height="60" as="geometry" />
        </mxCell>
        <mxCell id="Q05lDvQQ7-CmcgwzlYSV-580" value="" style="endArrow=none;html=1;rounded=0;" parent="1" edge="1">
          <mxGeometry width="50" height="50" relative="1" as="geometry">
            <mxPoint x="792.75" y="8315" as="sourcePoint" />
            <mxPoint x="792.75" y="8265" as="targetPoint" />
          </mxGeometry>
        </mxCell>
        <mxCell id="Q05lDvQQ7-CmcgwzlYSV-581" value="" style="endArrow=none;html=1;rounded=0;" parent="1" edge="1">
          <mxGeometry width="50" height="50" relative="1" as="geometry">
            <mxPoint x="714" y="8315" as="sourcePoint" />
            <mxPoint x="794" y="8315" as="targetPoint" />
          </mxGeometry>
        </mxCell>
        <mxCell id="Q05lDvQQ7-CmcgwzlYSV-582" value="" style="endArrow=none;html=1;rounded=0;" parent="1" edge="1">
          <mxGeometry width="50" height="50" relative="1" as="geometry">
            <mxPoint x="794" y="8315" as="sourcePoint" />
            <mxPoint x="894" y="8315" as="targetPoint" />
          </mxGeometry>
        </mxCell>
        <mxCell id="Q05lDvQQ7-CmcgwzlYSV-583" value="" style="endArrow=none;html=1;rounded=0;entryX=0.5;entryY=0;entryDx=0;entryDy=0;" parent="1" edge="1">
          <mxGeometry width="50" height="50" relative="1" as="geometry">
            <mxPoint x="714.0000000000001" y="8310" as="sourcePoint" />
            <mxPoint x="714.0000000000001" y="8370" as="targetPoint" />
          </mxGeometry>
        </mxCell>
        <mxCell id="Q05lDvQQ7-CmcgwzlYSV-584" value="" style="endArrow=none;html=1;rounded=0;entryX=0.5;entryY=0;entryDx=0;entryDy=0;" parent="1" edge="1">
          <mxGeometry width="50" height="50" relative="1" as="geometry">
            <mxPoint x="894" y="8310" as="sourcePoint" />
            <mxPoint x="894" y="8370" as="targetPoint" />
          </mxGeometry>
        </mxCell>
        <mxCell id="Q05lDvQQ7-CmcgwzlYSV-585" value="" style="endArrow=none;html=1;rounded=0;exitX=0.5;exitY=0;exitDx=0;exitDy=0;" parent="1" source="Q05lDvQQ7-CmcgwzlYSV-577" edge="1">
          <mxGeometry width="50" height="50" relative="1" as="geometry">
            <mxPoint x="744" y="8210" as="sourcePoint" />
            <mxPoint x="794" y="8160" as="targetPoint" />
          </mxGeometry>
        </mxCell>
        <mxCell id="Q05lDvQQ7-CmcgwzlYSV-586" value="" style="endArrow=none;html=1;rounded=0;" parent="1" edge="1">
          <mxGeometry width="50" height="50" relative="1" as="geometry">
            <mxPoint x="450" y="8030" as="sourcePoint" />
            <mxPoint x="450" y="7990" as="targetPoint" />
          </mxGeometry>
        </mxCell>
        <mxCell id="Q05lDvQQ7-CmcgwzlYSV-587" value="" style="endArrow=none;html=1;rounded=0;" parent="1" edge="1">
          <mxGeometry width="50" height="50" relative="1" as="geometry">
            <mxPoint x="220" y="8030" as="sourcePoint" />
            <mxPoint x="450" y="8030" as="targetPoint" />
          </mxGeometry>
        </mxCell>
        <mxCell id="Q05lDvQQ7-CmcgwzlYSV-588" value="" style="endArrow=none;html=1;rounded=0;" parent="1" edge="1">
          <mxGeometry width="50" height="50" relative="1" as="geometry">
            <mxPoint x="530" y="8030" as="sourcePoint" />
            <mxPoint x="450" y="8030" as="targetPoint" />
          </mxGeometry>
        </mxCell>
        <mxCell id="Q05lDvQQ7-CmcgwzlYSV-589" value="Content" style="rounded=0;whiteSpace=wrap;html=1;" parent="1" vertex="1">
          <mxGeometry x="100" y="8010" width="120" height="60" as="geometry" />
        </mxCell>
        <mxCell id="Q05lDvQQ7-CmcgwzlYSV-590" value="" style="endArrow=none;html=1;rounded=0;" parent="1" edge="1">
          <mxGeometry width="50" height="50" relative="1" as="geometry">
            <mxPoint x="160" y="8120" as="sourcePoint" />
            <mxPoint x="160" y="8070" as="targetPoint" />
          </mxGeometry>
        </mxCell>
        <mxCell id="Q05lDvQQ7-CmcgwzlYSV-591" value="Blog Posts" style="rounded=0;whiteSpace=wrap;html=1;" parent="1" vertex="1">
          <mxGeometry x="100" y="8110" width="120" height="60" as="geometry" />
        </mxCell>
        <mxCell id="v5Ww4Fl1QuLHvLs4kOth-1" value="GUI Features" style="rounded=0;whiteSpace=wrap;html=1;" vertex="1" parent="1">
          <mxGeometry x="464" y="9090" width="120" height="60" as="geometry" />
        </mxCell>
        <mxCell id="v5Ww4Fl1QuLHvLs4kOth-2" value="Contact Form" style="rounded=0;whiteSpace=wrap;html=1;" vertex="1" parent="1">
          <mxGeometry x="384" y="9220" width="120" height="60" as="geometry" />
        </mxCell>
        <mxCell id="v5Ww4Fl1QuLHvLs4kOth-3" value="" style="endArrow=none;html=1;rounded=0;" edge="1" parent="1">
          <mxGeometry width="50" height="50" relative="1" as="geometry">
            <mxPoint x="524" y="9185" as="sourcePoint" />
            <mxPoint x="524" y="9185" as="targetPoint" />
          </mxGeometry>
        </mxCell>
        <mxCell id="v5Ww4Fl1QuLHvLs4kOth-4" value="" style="endArrow=none;html=1;rounded=0;exitX=0.5;exitY=0;exitDx=0;exitDy=0;" edge="1" parent="1" source="v5Ww4Fl1QuLHvLs4kOth-2">
          <mxGeometry width="50" height="50" relative="1" as="geometry">
            <mxPoint x="444" y="9215" as="sourcePoint" />
            <mxPoint x="444" y="9190" as="targetPoint" />
          </mxGeometry>
        </mxCell>
        <mxCell id="v5Ww4Fl1QuLHvLs4kOth-5" value="Validation" style="rounded=0;whiteSpace=wrap;html=1;" vertex="1" parent="1">
          <mxGeometry x="449" y="9410" width="120" height="60" as="geometry" />
        </mxCell>
        <mxCell id="v5Ww4Fl1QuLHvLs4kOth-6" value="" style="endArrow=none;html=1;rounded=0;" edge="1" parent="1">
          <mxGeometry width="50" height="50" relative="1" as="geometry">
            <mxPoint x="359" y="9330" as="sourcePoint" />
            <mxPoint x="509" y="9330" as="targetPoint" />
          </mxGeometry>
        </mxCell>
        <mxCell id="v5Ww4Fl1QuLHvLs4kOth-7" value="" style="endArrow=none;html=1;rounded=0;exitX=0.5;exitY=0;exitDx=0;exitDy=0;" edge="1" parent="1" source="v5Ww4Fl1QuLHvLs4kOth-21">
          <mxGeometry width="50" height="50" relative="1" as="geometry">
            <mxPoint x="359" y="9370" as="sourcePoint" />
            <mxPoint x="359" y="9330" as="targetPoint" />
          </mxGeometry>
        </mxCell>
        <mxCell id="v5Ww4Fl1QuLHvLs4kOth-8" value="Contact Us Page" style="rounded=0;whiteSpace=wrap;html=1;" vertex="1" parent="1">
          <mxGeometry x="390" y="8960" width="120" height="60" as="geometry" />
        </mxCell>
        <mxCell id="v5Ww4Fl1QuLHvLs4kOth-9" value="" style="endArrow=none;html=1;rounded=0;exitX=0.5;exitY=0;exitDx=0;exitDy=0;" edge="1" parent="1" source="v5Ww4Fl1QuLHvLs4kOth-1">
          <mxGeometry width="50" height="50" relative="1" as="geometry">
            <mxPoint x="460" y="9120" as="sourcePoint" />
            <mxPoint x="524" y="9060" as="targetPoint" />
          </mxGeometry>
        </mxCell>
        <mxCell id="v5Ww4Fl1QuLHvLs4kOth-10" value="" style="endArrow=none;html=1;rounded=0;" edge="1" parent="1">
          <mxGeometry width="50" height="50" relative="1" as="geometry">
            <mxPoint x="444" y="9190" as="sourcePoint" />
            <mxPoint x="1159" y="9190" as="targetPoint" />
          </mxGeometry>
        </mxCell>
        <mxCell id="v5Ww4Fl1QuLHvLs4kOth-11" value="" style="endArrow=none;html=1;rounded=0;exitX=0.5;exitY=0;exitDx=0;exitDy=0;" edge="1" parent="1">
          <mxGeometry width="50" height="50" relative="1" as="geometry">
            <mxPoint x="1159" y="9235" as="sourcePoint" />
            <mxPoint x="1159" y="9190" as="targetPoint" />
          </mxGeometry>
        </mxCell>
        <mxCell id="v5Ww4Fl1QuLHvLs4kOth-12" value="" style="endArrow=none;html=1;rounded=0;" edge="1" parent="1">
          <mxGeometry width="50" height="50" relative="1" as="geometry">
            <mxPoint x="524" y="9190" as="sourcePoint" />
            <mxPoint x="524" y="9150" as="targetPoint" />
          </mxGeometry>
        </mxCell>
        <mxCell id="v5Ww4Fl1QuLHvLs4kOth-13" value="Back-End" style="rounded=0;whiteSpace=wrap;html=1;" vertex="1" parent="1">
          <mxGeometry x="1099" y="9235" width="120" height="60" as="geometry" />
        </mxCell>
        <mxCell id="v5Ww4Fl1QuLHvLs4kOth-14" value="Database: Stores users details and does validation" style="rounded=0;whiteSpace=wrap;html=1;" vertex="1" parent="1">
          <mxGeometry x="1019" y="9405" width="120" height="60" as="geometry" />
        </mxCell>
        <mxCell id="v5Ww4Fl1QuLHvLs4kOth-15" value="API:(Fetches location Data and and sends user, admin confirmation" style="rounded=0;whiteSpace=wrap;html=1;" vertex="1" parent="1">
          <mxGeometry x="1199" y="9405" width="120" height="60" as="geometry" />
        </mxCell>
        <mxCell id="v5Ww4Fl1QuLHvLs4kOth-16" value="" style="endArrow=none;html=1;rounded=0;" edge="1" parent="1">
          <mxGeometry width="50" height="50" relative="1" as="geometry">
            <mxPoint x="1159" y="9345" as="sourcePoint" />
            <mxPoint x="1159" y="9295" as="targetPoint" />
          </mxGeometry>
        </mxCell>
        <mxCell id="v5Ww4Fl1QuLHvLs4kOth-17" value="" style="endArrow=none;html=1;rounded=0;" edge="1" parent="1">
          <mxGeometry width="50" height="50" relative="1" as="geometry">
            <mxPoint x="1079" y="9345" as="sourcePoint" />
            <mxPoint x="1159" y="9345" as="targetPoint" />
          </mxGeometry>
        </mxCell>
        <mxCell id="v5Ww4Fl1QuLHvLs4kOth-18" value="" style="endArrow=none;html=1;rounded=0;" edge="1" parent="1">
          <mxGeometry width="50" height="50" relative="1" as="geometry">
            <mxPoint x="1159" y="9345" as="sourcePoint" />
            <mxPoint x="1259" y="9345" as="targetPoint" />
          </mxGeometry>
        </mxCell>
        <mxCell id="v5Ww4Fl1QuLHvLs4kOth-19" value="" style="endArrow=none;html=1;rounded=0;entryX=0.5;entryY=0;entryDx=0;entryDy=0;" edge="1" parent="1" target="v5Ww4Fl1QuLHvLs4kOth-15">
          <mxGeometry width="50" height="50" relative="1" as="geometry">
            <mxPoint x="1259" y="9345" as="sourcePoint" />
            <mxPoint x="1309" y="9295" as="targetPoint" />
          </mxGeometry>
        </mxCell>
        <mxCell id="v5Ww4Fl1QuLHvLs4kOth-20" value="" style="endArrow=none;html=1;rounded=0;entryX=0.5;entryY=0;entryDx=0;entryDy=0;" edge="1" parent="1">
          <mxGeometry width="50" height="50" relative="1" as="geometry">
            <mxPoint x="1078.17" y="9345" as="sourcePoint" />
            <mxPoint x="1078.17" y="9405" as="targetPoint" />
          </mxGeometry>
        </mxCell>
        <mxCell id="v5Ww4Fl1QuLHvLs4kOth-21" value="Input Fields" style="rounded=0;whiteSpace=wrap;html=1;" vertex="1" parent="1">
          <mxGeometry x="299" y="9410" width="120" height="60" as="geometry" />
        </mxCell>
        <mxCell id="v5Ww4Fl1QuLHvLs4kOth-22" value="" style="endArrow=none;html=1;rounded=0;" edge="1" parent="1">
          <mxGeometry width="50" height="50" relative="1" as="geometry">
            <mxPoint x="439" y="9330" as="sourcePoint" />
            <mxPoint x="439" y="9280" as="targetPoint" />
          </mxGeometry>
        </mxCell>
        <mxCell id="v5Ww4Fl1QuLHvLs4kOth-23" value="" style="endArrow=none;html=1;rounded=0;" edge="1" parent="1">
          <mxGeometry width="50" height="50" relative="1" as="geometry">
            <mxPoint x="509" y="9410" as="sourcePoint" />
            <mxPoint x="509" y="9330" as="targetPoint" />
          </mxGeometry>
        </mxCell>
        <mxCell id="v5Ww4Fl1QuLHvLs4kOth-24" value="Contact Information" style="rounded=0;whiteSpace=wrap;html=1;" vertex="1" parent="1">
          <mxGeometry x="729" y="9235" width="120" height="60" as="geometry" />
        </mxCell>
        <mxCell id="v5Ww4Fl1QuLHvLs4kOth-25" value="Phone Number" style="rounded=0;whiteSpace=wrap;html=1;" vertex="1" parent="1">
          <mxGeometry x="659" y="9400" width="120" height="60" as="geometry" />
        </mxCell>
        <mxCell id="v5Ww4Fl1QuLHvLs4kOth-26" value="Email Address" style="rounded=0;whiteSpace=wrap;html=1;" vertex="1" parent="1">
          <mxGeometry x="829" y="9400" width="120" height="60" as="geometry" />
        </mxCell>
        <mxCell id="v5Ww4Fl1QuLHvLs4kOth-27" value="" style="endArrow=none;html=1;rounded=0;" edge="1" parent="1">
          <mxGeometry width="50" height="50" relative="1" as="geometry">
            <mxPoint x="787.75" y="9345" as="sourcePoint" />
            <mxPoint x="787.75" y="9295" as="targetPoint" />
          </mxGeometry>
        </mxCell>
        <mxCell id="v5Ww4Fl1QuLHvLs4kOth-28" value="" style="endArrow=none;html=1;rounded=0;" edge="1" parent="1">
          <mxGeometry width="50" height="50" relative="1" as="geometry">
            <mxPoint x="709" y="9345" as="sourcePoint" />
            <mxPoint x="789" y="9345" as="targetPoint" />
          </mxGeometry>
        </mxCell>
        <mxCell id="v5Ww4Fl1QuLHvLs4kOth-29" value="" style="endArrow=none;html=1;rounded=0;" edge="1" parent="1">
          <mxGeometry width="50" height="50" relative="1" as="geometry">
            <mxPoint x="789" y="9345" as="sourcePoint" />
            <mxPoint x="889" y="9345" as="targetPoint" />
          </mxGeometry>
        </mxCell>
        <mxCell id="v5Ww4Fl1QuLHvLs4kOth-30" value="" style="endArrow=none;html=1;rounded=0;entryX=0.5;entryY=0;entryDx=0;entryDy=0;" edge="1" parent="1">
          <mxGeometry width="50" height="50" relative="1" as="geometry">
            <mxPoint x="709.0000000000001" y="9340" as="sourcePoint" />
            <mxPoint x="709.0000000000001" y="9400" as="targetPoint" />
          </mxGeometry>
        </mxCell>
        <mxCell id="v5Ww4Fl1QuLHvLs4kOth-31" value="" style="endArrow=none;html=1;rounded=0;entryX=0.5;entryY=0;entryDx=0;entryDy=0;" edge="1" parent="1">
          <mxGeometry width="50" height="50" relative="1" as="geometry">
            <mxPoint x="889" y="9340" as="sourcePoint" />
            <mxPoint x="889" y="9400" as="targetPoint" />
          </mxGeometry>
        </mxCell>
        <mxCell id="v5Ww4Fl1QuLHvLs4kOth-32" value="" style="endArrow=none;html=1;rounded=0;exitX=0.5;exitY=0;exitDx=0;exitDy=0;" edge="1" parent="1" source="v5Ww4Fl1QuLHvLs4kOth-24">
          <mxGeometry width="50" height="50" relative="1" as="geometry">
            <mxPoint x="739" y="9240" as="sourcePoint" />
            <mxPoint x="789" y="9190" as="targetPoint" />
          </mxGeometry>
        </mxCell>
        <mxCell id="v5Ww4Fl1QuLHvLs4kOth-33" value="" style="endArrow=none;html=1;rounded=0;" edge="1" parent="1">
          <mxGeometry width="50" height="50" relative="1" as="geometry">
            <mxPoint x="445" y="9060" as="sourcePoint" />
            <mxPoint x="445" y="9020" as="targetPoint" />
          </mxGeometry>
        </mxCell>
        <mxCell id="v5Ww4Fl1QuLHvLs4kOth-34" value="" style="endArrow=none;html=1;rounded=0;" edge="1" parent="1">
          <mxGeometry width="50" height="50" relative="1" as="geometry">
            <mxPoint x="215" y="9060" as="sourcePoint" />
            <mxPoint x="445" y="9060" as="targetPoint" />
          </mxGeometry>
        </mxCell>
        <mxCell id="v5Ww4Fl1QuLHvLs4kOth-35" value="" style="endArrow=none;html=1;rounded=0;" edge="1" parent="1">
          <mxGeometry width="50" height="50" relative="1" as="geometry">
            <mxPoint x="525" y="9060" as="sourcePoint" />
            <mxPoint x="445" y="9060" as="targetPoint" />
          </mxGeometry>
        </mxCell>
        <mxCell id="v5Ww4Fl1QuLHvLs4kOth-36" value="Content" style="rounded=0;whiteSpace=wrap;html=1;" vertex="1" parent="1">
          <mxGeometry x="95" y="9040" width="120" height="60" as="geometry" />
        </mxCell>
        <mxCell id="v5Ww4Fl1QuLHvLs4kOth-37" value="" style="endArrow=none;html=1;rounded=0;" edge="1" parent="1">
          <mxGeometry width="50" height="50" relative="1" as="geometry">
            <mxPoint x="155" y="9150" as="sourcePoint" />
            <mxPoint x="155" y="9100" as="targetPoint" />
          </mxGeometry>
        </mxCell>
        <mxCell id="v5Ww4Fl1QuLHvLs4kOth-38" value="Blog Posts" style="rounded=0;whiteSpace=wrap;html=1;" vertex="1" parent="1">
          <mxGeometry x="95" y="9140" width="120" height="60" as="geometry" />
        </mxCell>
      </root>
    </mxGraphModel>
  </diagram>
</mxfile>
